<svg id="Layer_1" data-name="Layer 1" xmlns="http://www.w3.org/2000/svg" viewBox="0 0 371.31 542.36"><defs><style>.cls-1{fill:#201f20;}.cls-2{fill:#f7f0f0;stroke:#020202;stroke-miterlimit:10;stroke-width:0.25px;}.cls-3{fill:#202022;}.cls-4{fill:#eae8e8;}</style></defs><path class="cls-1" d="M442.47,544.34c-94.83,3-195.61,8.55-290.43,11.55-34.72,0-62.86-26.27-62.86-58.67V72.2c0-32.4,28.14-58.67,62.86-58.67H449.55c0,135.58-4,286.47-7.08,440.67" transform="translate(-89.18 -13.53)"/><path class="cls-2" d="M433.87,510.26l-247.16,7.82c-11.85,0-22.46-7.06-26.07-17.6a33.43,33.43,0,0,1-1.93-10.75v-2.12c0-15.57,13.52-28.2,30.2-28.2l245-5.21Z" transform="translate(-89.18 -13.53)"/><path class="cls-3" d="M117.65,34.83,443.58,24.65a1.71,1.71,0,0,1,1.81,1.58l15.1,421.35a.63.63,0,0,1-.63.63l-327,10.21Z" transform="translate(-89.18 -13.53)"/><rect class="cls-4" x="104.76" y="153.16" width="157.33" height="27.38"/><rect class="cls-4" x="104.76" y="218.05" width="157.33" height="27.38"/></svg>