<svg id="Layer_1" data-name="Layer 1" xmlns="http://www.w3.org/2000/svg" viewBox="0 0 447.22 406.67"><defs><style>.cls-1{fill:#fff;stroke:#231f20;stroke-width:17px;}.cls-1,.cls-2{stroke-miterlimit:10;}.cls-2{fill:none;stroke:#121212;stroke-width:14px;}</style></defs><circle class="cls-1" cx="223.17" cy="101.08" r="47.29"/><rect x="164.84" y="204.33" width="23.64" height="308.18" transform="translate(176.36 -128.41) rotate(36.56)"/><path d="M71.91,498.72l22.46-9.49-18.8-14.71Z" transform="translate(-71.91 -93.7)"/><path class="cls-2" d="M115.16,269c27.48,60.27,96.24,103,176.73,103,87.73,0,161.53-50.76,183.13-119.68" transform="translate(-71.91 -93.7)"/><rect x="402.56" y="205.99" width="23.64" height="308.18" transform="translate(889.8 308.76) rotate(143.44)"/><path d="M519.13,500.37l-22.45-9.48,18.8-14.72Q517.31,488.28,519.13,500.37Z" transform="translate(-71.91 -93.7)"/><circle cx="223.17" cy="101.08" r="27.48"/><rect x="208.46" width="29.42" height="58.9" rx="12"/></svg>