<svg id="Layer_1" data-name="Layer 1" xmlns="http://www.w3.org/2000/svg" viewBox="0 0 758.71 658.86"><defs><style>.cls-1{fill:#7b2cbf;stroke:#fff;opacity:0.8;}.cls-1,.cls-10,.cls-11,.cls-12,.cls-13,.cls-14,.cls-16,.cls-18,.cls-19,.cls-20,.cls-21,.cls-22,.cls-23,.cls-26,.cls-3,.cls-4,.cls-5,.cls-7,.cls-8{stroke-miterlimit:10;}.cls-2{font-size:36px;fill:#dfe5ea;font-family:MyriadPro-Regular, Myriad Pro;}.cls-3{fill:#f4d6a2;}.cls-11,.cls-12,.cls-13,.cls-14,.cls-16,.cls-18,.cls-20,.cls-21,.cls-22,.cls-23,.cls-26,.cls-3,.cls-4,.cls-5,.cls-7,.cls-8{stroke:#000;}.cls-24,.cls-4{fill:#fdccab;}.cls-5{fill:#4181f2;}.cls-6{fill:#ecd8c0;}.cls-10,.cls-7,.cls-8{fill:#a33a3a;}.cls-8{stroke-width:2px;}.cls-9{fill:#020202;}.cls-10{stroke:#c1272d;}.cls-10,.cls-14,.cls-16,.cls-20,.cls-21,.cls-23,.cls-26{stroke-width:3px;}.cls-11{fill:#b1915b;}.cls-12,.cls-13{fill:#cdc37b;}.cls-12{stroke-width:4px;}.cls-14{fill:#d16342;}.cls-15{fill:#994133;}.cls-16{fill:#d3c9c7;}.cls-17{fill:#9b4235;}.cls-18,.cls-20{fill:none;}.cls-19{fill:#020101;stroke:#994133;}.cls-21{fill:#e37d70;}.cls-22{fill:#f2f0f0;}.cls-23{fill:#dd6057;}.cls-25{fill:#7b2c23;}.cls-26{fill:#555a4d;}.cls-27{fill:#474136;}.cls-28{fill:#0c0c0c;}.cls-29,.cls-30{fill:#b1905a;}.cls-29{opacity:0.72;}</style></defs><rect class="cls-1" x="0.5" y="455.2" width="525" height="125" rx="12"/><text class="cls-2" transform="translate(214.58 535.14)">BUY</text><path class="cls-3" d="M1044.57,414.67" transform="translate(-581.07 -217.46)"/><path class="cls-3" d="M998.57,476.67" transform="translate(-581.07 -217.46)"/><polyline class="cls-4" points="542.13 509.59 602.96 599.03 622.66 587.17 566.98 494.64"/><path class="cls-5" d="M1179.16,809.94c.09,11.6,1.07,32,8.15,33.63a4.6,4.6,0,0,0,3-.39c10.51-4.68,36.72-14.31,36.72-14.31s32.08-6.62,28.53-18.75-18.31,1.26-18.31,1.26a34,34,0,0,1-32.34-9.13Z" transform="translate(-581.07 -217.46)"/><polyline class="cls-4" points="614.67 492.18 556.31 592.26 577.08 605.94 640.86 509.43"/><path class="cls-5" d="M1136,808.93c-9.57,7.94-25.86,22.61-22.33,29.59a5.08,5.08,0,0,0,2.42,2.26c11.12,5.57,37.16,20.86,37.16,20.86s27.58,22.21,35.21,11-13.64-14.39-13.64-14.39a36.67,36.67,0,0,1-14.67-33.11Z" transform="translate(-581.07 -217.46)"/><path class="cls-4" d="M1174.63,451.33c11,4,22.85,8.76,35.27,14.61,13.35,6.28,25.36,12.82,36,19.21l7.66-10-71.29-40" transform="translate(-581.07 -217.46)"/><path class="cls-6" d="M1323.66,419.26l-1.4.51c-7.14,3.35-14.17,7.06-21.39,10.12a4.74,4.74,0,0,1-.6.46c-8.61,5.29-17.66,9.26-26.74,13.18-.81.54-1.62,1.09-2.43,1.62-5.88,3.87-12.3,6.36-18.26,10-.62.42-1.25.83-1.9,1.2a3.33,3.33,0,0,1-3.24.15,13.58,13.58,0,0,0-.9,7.73,12.63,12.63,0,0,0,5.72,8.05,26.58,26.58,0,0,0,12.23,3.32,25.77,25.77,0,0,0,5.22-.49c26.47-11.31,42.23-15.24,68.71-26.56C1310.74,442.88,1321.19,423.26,1323.66,419.26Z" transform="translate(-581.07 -217.46)"/><polyline class="cls-7" points="681.73 258.4 758 230.65 728.1 349.83 648.38 365.3"/><path class="cls-8" d="M1250.66,456.73l-40.76,111s11.5,24.57,20.7,14.56,36.79-106.45,36.79-106.45Z" transform="translate(-581.07 -217.46)"/><path class="cls-9" d="M1243,483.71c3.1,6.41,9.31,11.55,16.62,11.88.64,0,.64-1,0-1-7-.32-12.82-5.3-15.75-11.39-.28-.58-1.15-.07-.87.51Z" transform="translate(-581.07 -217.46)"/><path class="cls-9" d="M1237,496.06c-.19,3.16,1.66,5.76,4,7.62a24.62,24.62,0,0,0,3.88,2.41l5.92,3.06,6.79,3.51c.57.29,1.08-.57.51-.87L1247,506c-2.72-1.4-5.64-2.81-7.53-5.33a7,7,0,0,1-1.44-4.63c0-.64-1-.64-1,0Z" transform="translate(-581.07 -217.46)"/><path class="cls-10" d="M1251.24,456.38l29.57-15.09,29.56-15.09c2-1,11.34-5.25,13.37-6.29" transform="translate(-581.07 -217.46)"/><path d="M1306,440.2a29.41,29.41,0,0,0,12.72-9.84c.38-.51-.48-1-.87-.5a28,28,0,0,1-12.12,9.37c-.59.23-.33,1.2.27,1Z" transform="translate(-581.07 -217.46)"/><path d="M1310.59,444.48a18.4,18.4,0,0,0,9.67-5.57c.44-.47-.27-1.18-.71-.71a17.37,17.37,0,0,1-9.23,5.31c-.63.13-.36,1.1.27,1Z" transform="translate(-581.07 -217.46)"/><path d="M1261.28,462.85l6.4-4.35c.53-.36,0-1.23-.5-.87l-6.41,4.36c-.52.36,0,1.22.51.86Z" transform="translate(-581.07 -217.46)"/><path d="M1265,466.21a55.37,55.37,0,0,0,24.47-7,.5.5,0,0,0-.51-.87,54.11,54.11,0,0,1-24,6.88c-.64,0-.64,1,0,1Z" transform="translate(-581.07 -217.46)"/><path d="M1277.8,459.26a93.65,93.65,0,0,0,19.73-12c.5-.39-.21-1.1-.71-.7a93.72,93.72,0,0,1-19.52,11.86c-.59.26-.08,1.13.5.86Z" transform="translate(-581.07 -217.46)"/><path class="cls-11" d="M1144.74,442.87a157.55,157.55,0,0,1,16.1,9.23c3.92,2.56,7.49,5.15,10.73,7.69l15.33-24.6q-6-2.71-12.27-5.39-8.52-3.58-16.68-6.67" transform="translate(-581.07 -217.46)"/><path class="cls-12" d="M1115.22,408.28s-8.43-5.38-17.63,18.45l-31.43,104.55s-4.6,19.22-17.63,26.9,0,5.39,0,5.39,55.2,26.9,92.76,11.53c0,0-10.73-76.88,0-94.56s-10-10,16.1-59.19V415.2Z" transform="translate(-581.07 -217.46)"/><path class="cls-4" d="M1157,494.75l51.94,34.49a26,26,0,0,0,6.71,8.19,21.55,21.55,0,0,0,17.63,4.61c.18,0,.3-.11.33-.22.16-.55-2.33-1.78-5.7-3.62-1-1.28-2.59-2.66-3.55-3.94,3.18,2.58,15.2,10,18.88,8.55,1.31-.51,1.39-.35,1.54-.77,1.4-4-16.88-12.1-16.88-12.1s16.28,9,24.08,11.37a1.6,1.6,0,0,0,1.55-2.7c-5.29-5-20-12.89-20-12.89L1254,537.43c.85.39,2.59-2.37,2.22-3.11a1,1,0,0,0-.28-.32l-13.1-9.76c-.35-.31-.5-.52-.45-.64s1.94,1.15,3.17,1.53c1.83,1.43,2.47,1.62,4.29,3,.19,0,1.75,1.43,2.61.79a4.3,4.3,0,0,0,.77-1.54c.18-.66-.57-2.3-1.24-3.16-2.89-3.74-21.68-20.82-29-18.33l-4.19,1.48-9.83.7-45.62-31Z" transform="translate(-581.07 -217.46)"/><polyline class="cls-13" points="533.39 235.79 579.38 284.22 593.95 260.39 540.29 218.88"/><polyline class="cls-4" points="538.76 183.13 560.99 213.88 566.35 175.44"/><path class="cls-4" d="M1032.43,364.46c.34,1.93,3.87,20.77,17.25,25,5.18,1.64,13.15,1.5,15.33-2.3s-2.13-9.89-1.42-10.28c.91-.51,7.41,9.43,8.32,11.05,3.62,6.43,11.26,14.57,28.54,23.14a49.67,49.67,0,0,0,20.1,5.13,287.36,287.36,0,0,1,34.59,3.27,24.24,24.24,0,0,0,12.29-1.13l25.34-9.2a37.33,37.33,0,0,0,22.41-22.23,2.09,2.09,0,0,0,.08-.23,69,69,0,0,0,3.93-27.37,23.4,23.4,0,0,0-.28-2.52l-11.31-71.11-51.36,7.69a64.17,64.17,0,0,1-32.2,3.08c-23.62-3.92-37.2-20.22-40.63-24.6l-1.53,55.35,1.53,19.22-17.63,11.53-25.3-21.53Q1036.46,350.43,1032.43,364.46Z" transform="translate(-581.07 -217.46)"/><path class="cls-14" d="M1236.34,265.29a81.51,81.51,0,0,0-21.77,64.18q-5.4-24.59-10.81-49.19Z" transform="translate(-581.07 -217.46)"/><path class="cls-15" d="M1067.31,366.38s35.27,7.69,17.63-84.56c0,0,32.2,23.06,52.13,18.45,54.45-2.58,74.17-9.8,80.93-16.78.85-.89,8-8.45,18.34-18.2,3.7-3.46,6.78-6.25,8.82-8.07,0,0,3.83-20.76-19.93-11.53-19.1-10.84-58.51-29.32-108.09-24.6a170.59,170.59,0,0,0-38,8.07l-25.68,14.22s-39.09,28.45-36.79,44.59,20.7,31.52-10.73,41.51a42.74,42.74,0,0,0,3.06,20c1.37,3.27,4.37,10.21,11.5,15.37,5.27,3.82,13.21,7,15.33,4.62,1.92-2.13-3.06-6.39-1.53-13.84.35-1.69,1.6-6.33,5.72-9a9.85,9.85,0,0,1,4.24-1.72C1057.35,343.32,1067.31,366.38,1067.31,366.38Z" transform="translate(-581.07 -217.46)"/><path class="cls-16" d="M1017.35,280.44s21.46,44.69-8.85,48.84c-2.11.29-6.83.63-9.75-2-2-1.86-2.8-4.88.34-23.12,2.72-15.86,4.18-18.68,6.9-20.75C1009.8,280.44,1014.46,280.25,1017.35,280.44Z" transform="translate(-581.07 -217.46)"/><path class="cls-17" d="M1011.35,318s-2.3-83.79-26.06-83.79,0,42.28,0,42.28-2.3-13.07-54.43-46.89,13.8,53,40.63,53.81c0,0-62.86-30.75-59.79-8.46s50.59,31.52,50.59,31.52-50.59,5.38-56.73,30,52.9-11.53,52.9-11.53-28.37,26.91-12.27,31.52,50.6-30,50.6-30Z" transform="translate(-581.07 -217.46)"/><path class="cls-18" d="M1028.6,397.52" transform="translate(-581.07 -217.46)"/><path class="cls-19" d="M1137.75,296.85l5.25,1.74c4,1.33,2.83,6-2.24,8.66-11.4,6.05-27.94,15.69-31.91,22.49C1108.85,329.74,1094.55,321.37,1137.75,296.85Z" transform="translate(-581.07 -217.46)"/><path class="cls-19" d="M1208.28,322.5c1.63-.55.72-4.38-1.06-7-5.91-8.61-26.27-10.44-32.65-10.87-1.79,5.39-.15,7.86,1.75,9.11,4.38,2.88,11.17,0,20.31,3C1203.87,319.09,1206.5,323.11,1208.28,322.5Z" transform="translate(-581.07 -217.46)"/><path class="cls-19" d="M1188.31,353.71c.8,2.1,2.94,2.57,4.37.92a6,6,0,0,0,.56-.78c.1-.17.19-.35.27-.52a4.79,4.79,0,0,0,.4-1.46l1.32-11.46a4.47,4.47,0,0,0-.57-2.83l0,0a2.34,2.34,0,0,0-3.42-.85l-.63.42a4.23,4.23,0,0,0-1.69,3l-1.2,10.43a4.66,4.66,0,0,0,.26,2.21Z" transform="translate(-581.07 -217.46)"/><path class="cls-19" d="M1129,347.8a3.93,3.93,0,0,0,6.27,1.2,6.65,6.65,0,0,0,.77-.88,5.36,5.36,0,0,0,.38-.59,4.48,4.48,0,0,0,.52-1.66l1.51-13.12a4.49,4.49,0,0,0-.91-3.28l0,0a3.9,3.9,0,0,0-4.91-1.09l-.89.46a4.42,4.42,0,0,0-2.31,3.43l-1.37,12a4.52,4.52,0,0,0,.44,2.54Z" transform="translate(-581.07 -217.46)"/><path class="cls-20" d="M1171.92,339.28c1.63,2,12.74,15.72,9.58,20.06-2.21,3-10.45.21-14.57-1.41l-.48-.37" transform="translate(-581.07 -217.46)"/><path class="cls-21" d="M1132.09,372.15a241,241,0,0,0,23.42,10.44c7.28,2.7,14.58,4.75,19.12,4.28-8.41,12.48-20.35,18.46-28.29,15.32-5.72-2.26-8.9-9.07-10.73-13A38,38,0,0,1,1132.09,372.15Z" transform="translate(-581.07 -217.46)"/><path class="cls-4" d="M1153.48,410.63a18.79,18.79,0,0,1-10.82-2.31" transform="translate(-581.07 -217.46)"/><path class="cls-22" d="M1155.53,382.6a66.18,66.18,0,0,1-11.15-1.87c-5-1.29-11.17-2.89-12-6.08a3.18,3.18,0,0,1,.27-2.2Z" transform="translate(-581.07 -217.46)"/><path class="cls-23" d="M1138,393.92c1.16-2.71,13-2.81,15.81,2.86.91,1.81,1,4.55-.3,5.86-2.26,2.19-7.9-.35-11-2.64C1142.09,399.69,1137.09,396,1138,393.92Z" transform="translate(-581.07 -217.46)"/><path class="cls-24" d="M1135.45,413.76l1.53,2.72a.51.51,0,0,0,.87,0,9.12,9.12,0,0,0,.84-4.85l-1,.13,1.27,4.65a.5.5,0,0,0,1-.13l-.06-3.95a.5.5,0,0,0-1,0l.06,3.95,1-.14-1.28-4.64a.5.5,0,0,0-.55-.36.49.49,0,0,0-.43.49A8.16,8.16,0,0,1,1137,416h.87l-1.54-2.73c-.31-.56-1.18-.05-.86.51Z" transform="translate(-581.07 -217.46)"/><path class="cls-24" d="M1138.06,417.56l1.18,2.35a.49.49,0,0,0,.68.18.51.51,0,0,0,.18-.68l-1.18-2.36a.51.51,0,0,0-.68-.18.53.53,0,0,0-.18.69Z" transform="translate(-581.07 -217.46)"/><path class="cls-24" d="M1141.61,412.58a30.49,30.49,0,0,0,.42,9c.12.63,1.09.36,1-.27a29.66,29.66,0,0,1-.38-8.72c.07-.64-.93-.64-1,0Z" transform="translate(-581.07 -217.46)"/><path class="cls-24" d="M1139.87,413.5a8.2,8.2,0,0,0-1.25,5,.51.51,0,0,0,.5.5.5.5,0,0,0,.5-.5,7.26,7.26,0,0,1,1.12-4.46c.34-.54-.52-1-.87-.5Z" transform="translate(-581.07 -217.46)"/><path class="cls-24" d="M1133.93,414a11.91,11.91,0,0,0,3.3,6.18,1,1,0,0,0,1.42,0l3.1-3.25-1.71-.71-.09,1a1,1,0,0,0,1,1,1,1,0,0,0,1-1l.09-1a1,1,0,0,0-1.71-.71l-3.1,3.26h1.42c-.19-.19-.38-.38-.55-.58l-.26-.31q-.1-.14,0,0l-.12-.16a11.91,11.91,0,0,1-.85-1.36c-.12-.23-.24-.47-.35-.72s0-.12,0,0c0-.07,0-.13-.08-.19s-.09-.25-.13-.38a10.28,10.28,0,0,1-.41-1.54,1,1,0,0,0-1.23-.7,1,1,0,0,0-.7,1.23Z" transform="translate(-581.07 -217.46)"/><path d="M1143.76,416.78h-3.24a.51.51,0,0,0-.5.5.51.51,0,0,0,.5.5h3.24a.5.5,0,0,0,0-1h-3.24a.51.51,0,0,0-.5.5.51.51,0,0,0,.5.5h3.24a.5.5,0,0,0,0-1Z" transform="translate(-581.07 -217.46)"/><path class="cls-6" d="M1255.41,474.93a31.47,31.47,0,0,0,10.88-3.7C1266.27,471.16,1264.2,471.82,1255.41,474.93Z" transform="translate(-581.07 -217.46)"/><path d="M1021,273.49c8.86-10.25,19.73-18.45,31.33-25.36s24.1-12.7,36.49-18.34c7-3.2,14.09-6.39,21.64-8.17a91.47,91.47,0,0,1,22.68-2.14,183.42,183.42,0,0,1,23,2.16c7.23,1.07,14.46,2.28,21.64,3.66,13.66,2.63,27.43,6.21,39.41,13.52,1.46.89,2.88,1.84,4.27,2.83,1,.75,2-1,1-1.73-11.57-8.25-25.31-12.59-39.07-15.52-7.12-1.52-14.31-2.72-21.49-3.87-7.69-1.24-15.4-2.32-23.17-2.81a106.56,106.56,0,0,0-23,.84,88.51,88.51,0,0,0-22.18,6.89c-12.85,5.66-25.71,11.54-38,18.44-11.84,6.67-23.17,14.52-32.6,24.38-1.18,1.24-2.34,2.51-3.46,3.81-.84,1,.57,2.39,1.41,1.41Z" transform="translate(-581.07 -217.46)"/><path d="M1220,241.76A18.77,18.77,0,0,0,1236,230.7a17.93,17.93,0,0,0,1.48-5.76c.1-1.28-1.9-1.27-2,0A16.82,16.82,0,0,1,1225,238.71a15.22,15.22,0,0,1-5,1c-1.28.05-1.28,2.05,0,2Z" transform="translate(-581.07 -217.46)"/><path class="cls-25" d="M1097.78,266.52c7.06,1.7,13.85,4.26,20.71,6.59a101.81,101.81,0,0,0,21,5.17c14.63,1.69,29.38-.86,43.47-4.71,8.08-2.21,16-4.87,23.94-7.56.61-.21.35-1.17-.27-1-14,4.74-28.1,9.45-42.75,11.62a96,96,0,0,1-21.82.87,91.81,91.81,0,0,1-21.16-4.66c-7.61-2.51-15.1-5.45-22.9-7.32-.63-.15-.89.81-.27,1Z" transform="translate(-581.07 -217.46)"/><path class="cls-25" d="M1112,258q21.72,1.55,43.38,3.66,6.06.58,12.12,1.22c.64.07.64-.93,0-1q-21.65-2.26-43.34-4-6.08-.48-12.16-.91c-.64,0-.64,1,0,1Z" transform="translate(-581.07 -217.46)"/><path class="cls-25" d="M1119.83,243.2a110.37,110.37,0,0,1,33.38-2c3.18.3,6.35.74,9.49,1.32.63.11.9-.85.27-1a111,111,0,0,0-33.94-1q-4.77.6-9.47,1.61c-.63.14-.36,1.1.27,1Z" transform="translate(-581.07 -217.46)"/><path class="cls-26" d="M1050.35,565.87s80.73,24.6,87.58,7.69a341,341,0,0,0,13.14,34.61h0a100.81,100.81,0,0,0,18,26c22.34,23.24,43.68,22.11,60,37,11.52,10.51,22.35,30.67,19,73h-76c-56.42,24.9-74.18,22.11-80,15-8.88-10.85,11-30.68,1.64-54.35-9.15-23.22-35.26-21.33-49.64-41.65C1033.28,647.93,1027.57,620.3,1050.35,565.87Z" transform="translate(-581.07 -217.46)"/><path class="cls-27" d="M1077.22,572.14a27.21,27.21,0,0,0-3.09,17.17c.09.64,1,.37,1-.26a26.13,26.13,0,0,1,3-16.4c.31-.57-.56-1.07-.87-.51Z" transform="translate(-581.07 -217.46)"/><path class="cls-27" d="M1062.1,574.3v6.28a.5.5,0,0,0,1,0V574.3a.5.5,0,0,0-1,0Z" transform="translate(-581.07 -217.46)"/><path class="cls-28" d="M1064.51,571.82a21.34,21.34,0,0,0,.65,8.92.5.5,0,0,0,1-.26,20,20,0,0,1-.66-8.39c.09-.63-.87-.9-1-.27Z" transform="translate(-581.07 -217.46)"/><path class="cls-28" d="M1074.46,571.76a34.24,34.24,0,0,0,0,20.79c.2.61,1.16.35,1-.27a33.29,33.29,0,0,1,0-20.26c.19-.61-.77-.87-1-.26Z" transform="translate(-581.07 -217.46)"/><path class="cls-28" d="M1088.09,577.45q-.39,13.37-2,26.65c-.07.64.93.64,1,0q1.62-13.27,2-26.65c0-.65-1-.64-1,0Z" transform="translate(-581.07 -217.46)"/><path class="cls-28" d="M1122.22,641.84l.53,6.86a52.73,52.73,0,0,0,.61,6.39,6.57,6.57,0,0,0,1.08,2.6,11.63,11.63,0,0,0,1.92,1.92c1.23,1.06,3.1,2.8,2.17,4.61-.3.57.57,1.07.86.5.82-1.59.1-3.36-1-4.6-1.35-1.51-3.2-2.44-3.84-4.48a13.47,13.47,0,0,1-.47-3c-.1-1.23-.19-2.45-.29-3.68l-.55-7.1c0-.64-1-.65-1,0Z" transform="translate(-581.07 -217.46)"/><path class="cls-28" d="M1107.6,650.47a40.15,40.15,0,0,0,2,16.71c.21.61,1.17.35,1-.26a39.27,39.27,0,0,1-1.94-16.45c.06-.64-.94-.64-1,0Z" transform="translate(-581.07 -217.46)"/><path class="cls-28" d="M1063.58,653l6.29,16.47c.23.6,1.19.34,1-.26l-6.29-16.48c-.22-.59-1.19-.34-1,.27Z" transform="translate(-581.07 -217.46)"/><path class="cls-28" d="M1086.56,647.21a52.49,52.49,0,0,0,1.92,23.09c.2.61,1.16.35,1-.27a51.11,51.11,0,0,1-1.92-22.55c.09-.63-.88-.91-1-.27Z" transform="translate(-581.07 -217.46)"/><path class="cls-29" d="M1115,581.34l-1.25-3.52-3.15-8.87L1080.73,562l29.13-83L1125,462.69l-12.11-9.05a57.87,57.87,0,0,0,.39-16.53,58.56,58.56,0,0,0-8.43-23.83,401.56,401.56,0,0,0-14.57,37.66c-7.23,21.88-8.89,33.13-16.1,57.66-3,10.39-7.85,25.71-14.81,44.23l-15.09,8a75.69,75.69,0,0,0,20.7,10.76c8.84,2.92,14.37,2.83,29.13,5.38C1103.23,578.59,1110.5,580.25,1115,581.34Z" transform="translate(-581.07 -217.46)"/><path class="cls-30" d="M1061,544.18h2.35a.5.5,0,0,0,0-1H1061a.5.5,0,0,0,0,1Z" transform="translate(-581.07 -217.46)"/><path d="M1117.3,298.48a59.18,59.18,0,0,0,19.46,2.31c6-.13,12.08-.63,18.09-1.19a215.42,215.42,0,0,0,33.94-5.55,114.61,114.61,0,0,0,31.15-12.7,81.53,81.53,0,0,0,13.57-10.23,37.88,37.88,0,0,0,9.7-13.72c1.87-4.92,2.79-12-1.78-15.73a11.92,11.92,0,0,0-7.15-2.53,19.76,19.76,0,0,0-8.67,2.11c-1.42.64-2.8,1.37-4.18,2.1-1.14.61-.13,2.34,1,1.73,4.69-2.49,10.34-5.43,15.69-3.11a7.33,7.33,0,0,1,4.38,5.35,16.45,16.45,0,0,1-.71,8.05c-1.58,5.15-4.92,9.58-8.68,13.34a75.09,75.09,0,0,1-12.82,10.06,109,109,0,0,1-29.68,12.72,198.85,198.85,0,0,1-32.5,5.79c-5.65.58-11.33,1-17,1.34a73.38,73.38,0,0,1-18.78-.89,44,44,0,0,1-4.51-1.18c-1.23-.4-1.76,1.54-.53,1.93Z" transform="translate(-581.07 -217.46)"/><path d="M1119.82,298.58a1,1,0,0,0,0-2,1,1,0,0,0,0,2Z" transform="translate(-581.07 -217.46)"/><path d="M1039.46,369.71a18.24,18.24,0,0,1,9.91,1.48c.59.27,1.09-.59.51-.86a19.07,19.07,0,0,0-10.42-1.62c-.63.08-.64,1.08,0,1Z" transform="translate(-581.07 -217.46)"/><path d="M1040.7,362a40.21,40.21,0,0,1,13.62,15.15c.3.57,1.16.07.87-.5a41.25,41.25,0,0,0-14-15.51c-.54-.36-1,.51-.51.86Z" transform="translate(-581.07 -217.46)"/><path d="M1195.78,752.21v6a.5.5,0,0,0,1,0v-6a.5.5,0,0,0-1,0Z" transform="translate(-581.07 -217.46)"/><path d="M1185.47,795.85l4.48,4.48c.46.45,1.17-.26.71-.71l-4.48-4.48a.5.5,0,0,0-.71.71Z" transform="translate(-581.07 -217.46)"/><path d="M1151.6,845.13,1162,842a.5.5,0,0,0-.27-1l-10.41,3.09a.5.5,0,0,0,.26,1Z" transform="translate(-581.07 -217.46)"/><path d="M1211.78,822.21a20.34,20.34,0,0,1,1.19-11.74c.25-.6-.72-.86-1-.27a21.3,21.3,0,0,0-1.2,12.27c.13.64,1.09.37,1-.26Z" transform="translate(-581.07 -217.46)"/></svg>