<?xml version="1.0" standalone="no"?>
<!DOCTYPE svg PUBLIC "-//W3C//DTD SVG 20010904//EN"
 "http://www.w3.org/TR/2001/REC-SVG-20010904/DTD/svg10.dtd">
<svg version="1.0" xmlns="http://www.w3.org/2000/svg"
 width="496.000000pt" height="424.000000pt" viewBox="0 0 496.000000 424.000000"
 preserveAspectRatio="xMidYMid meet">
<metadata>
Created by potrace 1.16, written by Peter Selinger 2001-2019
</metadata>
<g transform="translate(0.000000,424.000000) scale(0.100000,-0.100000)"
fill="#000000" stroke="none">
<path d="M1860 4179 c-136 -74 -242 -166 -311 -272 -39 -60 -102 -202 -97
-218 2 -5 21 2 43 15 34 21 45 36 69 98 52 133 132 235 262 332 45 33 90 66
100 73 40 25 6 11 -66 -28z"/>
<path d="M3138 4164 c148 -101 273 -258 312 -390 9 -31 22 -47 56 -68 25 -16
47 -27 49 -24 2 2 -12 42 -31 88 -74 182 -179 297 -373 407 -105 60 -111 54
-13 -13z"/>
<path d="M2521 4004 c-2 -117 54 -263 136 -354 27 -30 101 -88 174 -136 159
-104 212 -167 225 -269 12 -84 -30 -134 -82 -100 -26 17 -73 104 -75 140 -1
11 -5 4 -9 -15 -9 -39 3 -119 24 -159 7 -14 30 -57 50 -94 27 -52 36 -80 36
-118 0 -27 -3 -49 -8 -49 -4 0 -18 24 -31 53 -36 78 -93 158 -151 210 -29 26
-55 47 -59 47 -3 0 -6 -33 -6 -72 -1 -94 -15 -121 -107 -195 -46 -37 -84 -78
-103 -111 -16 -28 -32 -51 -35 -52 -4 0 -11 15 -18 34 -11 30 -35 55 -156 165
-53 48 -68 83 -68 162 0 50 -3 67 -11 62 -74 -42 -167 -159 -208 -260 -23 -56
-23 -57 -31 -27 -13 46 0 92 53 190 49 91 71 179 55 221 -6 14 -12 5 -26 -37
-17 -50 -66 -110 -89 -110 -5 0 -19 8 -32 19 -33 27 -31 107 4 176 34 67 90
118 228 208 92 60 127 90 164 139 76 101 115 205 114 308 l0 55 -24 -68 c-50
-146 -123 -215 -350 -337 -312 -166 -410 -301 -432 -594 -5 -67 -3 -87 5 -82
7 4 12 15 12 26 0 10 9 47 20 83 33 105 85 130 134 64 57 -77 -15 -253 -147
-357 -46 -37 -52 -40 -58 -23 -9 22 -39 252 -46 349 -7 89 21 182 73 243 42
48 33 53 -23 12 -47 -34 -94 -105 -119 -181 -20 -58 -23 -163 -15 -500 3 -123
1 -162 -11 -191 -30 -70 -86 -97 -141 -68 -32 17 -37 28 -37 92 0 42 7 71 26
109 l26 51 -31 -22 c-40 -29 -75 -75 -101 -134 -12 -26 -25 -45 -29 -43 -15
10 -69 131 -82 186 -20 79 -18 262 3 331 33 105 96 138 142 76 19 -26 21 -41
20 -155 -1 -107 -5 -141 -28 -216 -15 -49 -25 -90 -23 -92 2 -2 27 32 56 76
87 132 163 328 195 501 13 66 35 308 36 377 0 22 -26 13 -60 -23 -31 -32 -34
-41 -46 -143 -14 -124 -39 -231 -58 -250 -41 -41 -75 47 -56 149 21 122 68
196 186 296 111 94 203 184 253 248 73 92 71 96 -9 21 -83 -76 -145 -119 -330
-227 -268 -158 -411 -293 -491 -464 -21 -44 -40 -98 -44 -120 l-7 -40 27 53
c47 91 151 192 199 192 22 0 46 -28 46 -54 0 -41 -48 -120 -151 -246 -173
-213 -219 -294 -219 -383 0 -45 25 -143 38 -151 5 -3 8 30 8 72 0 93 17 136
56 140 21 3 30 -3 42 -27 22 -41 22 -209 0 -280 -15 -51 -51 -101 -73 -101
-24 0 -64 50 -86 110 l-24 65 0 -61 c-1 -76 29 -178 66 -226 16 -20 53 -53 83
-74 186 -132 253 -261 267 -511 7 -116 0 -125 -36 -49 -32 68 -43 131 -42 240
0 84 -3 105 -21 138 -12 21 -25 38 -29 38 -18 0 -32 -82 -36 -206 -4 -112 -2
-143 16 -208 12 -43 30 -95 41 -116 28 -55 25 -63 -13 -44 -52 27 -105 73
-159 138 -57 68 -58 54 -3 -59 40 -82 115 -170 182 -213 26 -17 101 -54 166
-83 131 -57 164 -86 133 -117 -22 -22 -113 -21 -187 3 -72 24 -179 78 -260
131 -191 126 -324 364 -203 364 8 0 38 -21 66 -47 51 -48 51 -48 44 -18 -11
48 -61 149 -107 216 -51 76 -189 216 -324 331 -118 100 -214 201 -249 261 -15
24 -35 77 -45 118 l-19 74 -1 -83 c-1 -58 5 -99 18 -138 22 -60 102 -177 182
-264 107 -117 203 -236 220 -275 27 -58 25 -120 -3 -139 -54 -38 -118 -4 -155
81 -46 105 -44 103 -38 29 10 -138 71 -264 188 -384 112 -115 206 -168 440
-248 167 -58 241 -92 303 -141 110 -88 106 -183 -7 -183 -106 0 -266 87 -343
187 -22 28 -42 50 -44 48 -2 -2 12 -34 32 -72 68 -129 170 -230 290 -287 111
-53 150 -58 486 -66 336 -8 366 -13 456 -65 56 -33 84 -70 84 -111 0 -89 -121
-108 -306 -50 -43 14 -80 24 -82 21 -5 -5 93 -81 142 -110 68 -40 190 -84 293
-107 83 -19 128 -22 293 -22 186 0 200 2 315 32 141 37 279 103 350 166 l50
45 -80 -25 c-111 -34 -219 -41 -265 -17 -46 24 -59 61 -37 108 20 41 70 77
152 106 55 20 88 22 380 29 279 7 329 10 387 28 176 53 309 168 397 339 11 23
21 44 21 47 0 3 -33 -28 -73 -68 -91 -90 -197 -148 -288 -154 -83 -6 -114 14
-106 70 12 88 120 161 372 248 263 92 399 177 503 316 91 122 132 227 131 334
l-1 55 -13 -41 c-31 -98 -78 -154 -129 -154 -37 0 -49 7 -65 38 -32 61 17 151
188 342 189 211 251 323 251 450 0 67 -16 82 -25 24 -19 -129 -89 -215 -381
-467 -158 -136 -245 -243 -309 -380 -56 -121 -56 -129 5 -74 57 51 92 60 110
27 25 -47 -47 -180 -145 -267 -135 -120 -354 -225 -472 -227 -69 -1 -89 10
-79 47 6 26 15 31 196 115 154 72 236 149 301 287 39 82 36 97 -8 45 -67 -78
-136 -135 -185 -153 -22 -8 -22 -5 1 41 44 87 65 182 66 302 0 111 -19 240
-36 240 -4 0 -19 -19 -33 -43 -22 -38 -25 -50 -20 -112 3 -39 1 -98 -5 -133
-11 -67 -53 -172 -69 -172 -13 0 -5 158 13 245 17 80 69 192 116 248 17 21 67
63 111 94 43 30 90 70 104 88 33 44 61 125 69 208 8 77 -5 90 -23 22 -15 -58
-70 -120 -98 -111 -50 16 -90 152 -82 283 5 91 22 125 58 121 37 -4 60 -58 61
-143 l1 -70 19 40 c22 47 25 151 5 205 -18 51 -69 125 -196 283 -122 153 -150
200 -150 250 0 122 149 35 240 -141 12 -24 24 -41 26 -39 7 7 -28 111 -53 162
-90 178 -217 292 -543 486 -134 80 -194 122 -257 183 -46 43 -83 75 -83 69 0
-23 142 -183 224 -251 144 -120 200 -181 235 -256 52 -107 54 -254 5 -273 -10
-4 -22 1 -30 12 -18 24 -42 134 -55 254 l-12 99 -45 44 -44 43 5 -140 c7 -159
25 -282 61 -407 45 -155 130 -331 198 -411 l27 -32 -24 75 c-65 209 -55 407
22 426 137 35 170 -392 46 -589 l-26 -41 -27 60 c-15 33 -48 79 -74 104 -51
49 -55 48 -26 -10 28 -54 36 -122 20 -161 -22 -53 -90 -65 -138 -24 -49 41
-55 86 -47 380 8 283 2 341 -41 427 -30 59 -78 114 -116 134 -28 15 -29 15
-19 -5 6 -11 16 -23 21 -26 6 -4 22 -30 37 -58 37 -73 41 -165 14 -349 -11
-80 -21 -157 -21 -172 0 -14 -5 -26 -11 -26 -22 0 -166 155 -189 204 -45 95
-34 204 23 225 52 20 77 -11 112 -137 l24 -87 0 73 c1 98 -23 212 -63 297 -61
131 -164 219 -417 354 -123 66 -212 137 -251 199 -12 20 -35 71 -50 112 -26
73 -27 74 -27 34z m-353 -1236 c1 6 9 12 17 12 30 0 -1 -198 -41 -258 -8 -13
-13 -26 -10 -29 8 -8 43 24 79 72 l29 40 -7 -35 -7 -35 28 38 c23 32 29 35 34
21 5 -14 11 -10 31 22 l24 39 3 -65 c4 -80 -6 -150 -20 -147 -6 1 -15 -13 -20
-32 -5 -19 -27 -61 -48 -95 -34 -52 -40 -57 -41 -36 -1 25 -1 24 -14 -5 -8
-16 -14 -49 -15 -73 0 -29 -4 -41 -11 -36 -8 4 -10 -8 -8 -40 2 -25 2 -46 -1
-46 -30 0 -87 89 -62 98 9 3 9 9 1 24 -6 11 -7 23 -3 27 5 3 9 37 9 74 1 68 1
68 -17 45 -10 -13 -21 -33 -24 -45 -3 -13 -9 -23 -13 -23 -4 0 -13 -24 -20
-52 -8 -29 -16 -57 -18 -61 -7 -11 -39 29 -71 87 -24 43 -27 46 -32 26 -5 -21
-6 -21 -19 -6 -8 9 -20 15 -26 12 -14 -5 -48 28 -84 82 -25 35 -15 44 14 12
22 -24 35 -26 35 -4 0 13 7 10 27 -11 l28 -27 6 23 c4 13 7 20 8 14 1 -5 15
-26 31 -45 l30 -35 0 35 c0 19 5 52 11 73 8 30 13 36 23 28 10 -9 16 -1 26 34
9 32 17 44 26 41 8 -3 14 0 14 8 0 7 20 54 45 105 25 51 45 97 45 103 0 6 -21
-17 -47 -51 -37 -47 -49 -58 -53 -45 -5 13 -9 10 -19 -15 -18 -41 -34 -51 -26
-14 l7 28 -21 -25 c-12 -14 -26 -40 -33 -57 -14 -38 -28 -43 -29 -10 -1 15 -5
10 -14 -18 -10 -31 -14 -36 -20 -22 -11 26 -25 20 -25 -10 l-1 -28 -18 22
c-17 20 -20 21 -26 6 -5 -15 -7 -15 -15 -3 -16 25 -12 73 4 67 10 -4 16 5 21
34 6 37 25 55 25 24 0 -8 5 -15 10 -15 6 0 10 15 10 33 0 17 4 39 10 47 8 12
10 12 16 -3 10 -27 21 -20 29 20 9 51 15 57 30 36 12 -16 14 -13 24 25 10 37
31 59 31 32 0 -22 17 -8 29 25 15 44 27 45 36 3 l7 -32 19 23 c11 13 19 31 19
40 0 10 3 21 8 25 4 4 10 -18 13 -51 3 -32 6 -52 7 -45z m721 19 c8 -8 13 -1
17 21 8 42 21 40 40 -4 12 -29 18 -34 29 -24 12 10 17 7 25 -15 5 -14 10 -33
10 -41 0 -8 5 -14 10 -14 6 0 10 7 10 15 0 8 4 15 9 15 10 0 21 -34 21 -67 0
-26 15 -31 24 -7 9 24 23 8 30 -37 6 -38 8 -40 20 -23 13 17 15 15 25 -24 7
-23 16 -40 21 -37 12 7 12 -41 1 -70 -8 -19 -8 -19 -15 3 l-7 22 -19 -22 -19
-23 -1 30 c-1 27 -2 28 -14 13 -17 -23 -26 -23 -26 1 0 11 -3 28 -7 38 -6 16
-8 15 -13 -7 -5 -23 -8 -20 -35 33 -30 59 -50 76 -39 32 9 -36 -3 -31 -25 13
-14 25 -20 31 -21 18 0 -13 -15 1 -47 42 -26 34 -48 60 -50 58 -2 -1 17 -46
42 -98 25 -52 45 -103 45 -113 0 -11 5 -15 15 -11 10 4 18 -7 27 -37 14 -52
17 -55 28 -37 13 21 30 -29 30 -88 l1 -47 34 39 c24 27 35 34 35 23 0 -24 15
-21 38 8 23 29 32 31 32 8 0 -14 2 -15 18 -1 36 32 46 32 27 1 -30 -51 -77
-99 -82 -85 -4 10 -11 8 -29 -9 l-24 -22 0 24 c0 18 -9 8 -38 -41 -48 -83 -63
-86 -80 -18 -6 28 -16 54 -20 57 -4 3 -14 20 -21 38 -25 62 -36 56 -36 -18 0
-52 3 -69 14 -69 10 0 10 -5 -3 -25 -14 -22 -14 -25 -1 -25 12 0 13 -5 4 -27
-11 -30 -47 -73 -61 -73 -4 0 -8 21 -8 46 0 27 -4 43 -10 39 -6 -4 -10 11 -10
39 0 24 -5 57 -11 73 -10 25 -12 26 -18 9 -6 -16 -12 -11 -40 30 -18 27 -37
68 -43 90 -7 26 -16 40 -24 37 -14 -5 -28 94 -22 167 l3 45 28 -40 c20 -30 27
-35 27 -20 0 17 6 14 31 -15 l30 -35 -4 30 -5 30 16 -25 c24 -36 82 -94 88
-87 3 3 -2 20 -12 39 -27 52 -44 127 -44 197 0 55 2 62 15 51 13 -11 15 -6 15
32 0 58 10 67 26 22 7 -20 17 -41 23 -47z m-1132 -94 c-1 -38 2 -85 7 -107 6
-33 5 -38 -8 -33 -21 8 -20 -2 4 -63 11 -28 20 -52 20 -55 0 -8 -72 3 -83 14
-33 33 -31 3 4 -76 29 -65 26 -73 -25 -53 -27 10 -34 2 -15 -17 6 -6 9 -21 7
-33 l-3 -22 -28 22 c-34 27 -67 89 -67 126 l0 27 26 -24 27 -24 -7 25 c-4 14
-10 43 -13 65 -5 38 -5 39 11 20 16 -19 17 -18 11 21 -11 72 14 151 28 92 4
-13 12 -31 20 -41 11 -16 13 -10 14 52 1 81 9 100 29 74 13 -17 13 -17 14 4 0
22 16 73 23 73 3 0 4 -30 4 -67z m1509 30 c11 -52 16 -60 23 -33 7 24 7 24 15
5 5 -11 12 -49 15 -85 l7 -65 20 45 21 45 8 -37 c4 -21 5 -58 3 -83 -3 -45 -3
-45 15 -23 18 23 18 23 11 -17 -4 -22 -11 -50 -15 -63 -14 -36 -11 -37 16 -12
l25 23 0 -26 c0 -14 -5 -38 -11 -54 -11 -29 -67 -93 -81 -93 -12 0 -10 48 2
55 22 14 8 23 -21 13 -16 -6 -32 -8 -35 -5 -3 3 6 32 20 66 36 85 35 99 -9 65
-19 -14 -35 -21 -35 -15 0 8 -8 10 -19 6 -18 -5 -19 -3 -11 22 4 15 15 45 24
66 16 37 16 38 -2 33 -18 -6 -18 -2 -10 61 5 38 8 83 6 101 -5 39 9 43 18 5z
m-2131 -396 c42 -44 63 -91 105 -237 32 -107 75 -187 179 -333 142 -197 189
-320 144 -376 -16 -19 -25 -22 -51 -16 -52 11 -127 87 -169 171 -32 66 -37 87
-43 172 l-6 97 -13 -45 c-17 -60 -21 -131 -9 -215 17 -123 71 -224 180 -334
35 -35 54 -61 44 -57 -29 10 -187 53 -221 60 l-30 6 4 125 c5 211 -26 366
-107 525 -21 41 -58 112 -81 157 -59 116 -71 156 -71 232 0 84 16 111 67 111
30 0 44 -8 78 -43z m2860 23 c26 -29 30 -106 10 -176 -9 -32 -54 -131 -99
-219 -45 -88 -92 -191 -104 -229 -37 -112 -55 -255 -49 -389 l5 -117 -26 -6
c-26 -5 -187 -49 -226 -60 -10 -4 11 23 46 57 80 79 130 154 159 239 27 81 36
219 19 289 -15 63 -36 82 -27 25 22 -135 -66 -326 -176 -384 -39 -20 -49 -22
-71 -12 -23 10 -26 17 -26 66 0 80 30 146 130 286 128 179 165 248 211 395 45
141 75 202 115 234 34 27 85 27 109 1z m-1665 -70 c-26 -52 -25 -57 6 -23 20
22 24 24 19 8 -22 -67 -29 -258 -10 -299 18 -41 -14 -4 -54 62 -36 60 -41 76
-41 128 0 59 19 117 21 64 0 -21 2 -19 12 12 13 38 46 88 60 88 4 0 -2 -18
-13 -40z m372 -4 c6 -12 15 -34 19 -51 6 -28 7 -28 8 -5 3 52 21 -5 21 -65 0
-53 -5 -69 -42 -133 -45 -76 -64 -93 -46 -41 14 39 5 237 -12 268 -17 32 -6
37 20 9 l22 -23 -16 39 c-9 21 -16 41 -16 43 0 10 31 -21 42 -41z m-852 -111
c35 -26 56 -33 45 -15 -9 15 0 12 62 -19 32 -17 77 -34 100 -39 23 -5 56 -22
73 -36 18 -14 35 -26 40 -26 4 0 18 -15 30 -32 l22 -33 -6 30 -6 30 29 -31
c15 -17 31 -38 34 -45 5 -12 7 -12 15 -1 7 11 10 10 16 -3 3 -9 6 -25 6 -36 0
-11 5 -28 12 -38 15 -25 -17 -82 -54 -95 -22 -8 -30 -5 -51 20 -14 16 -21 31
-16 35 5 3 0 23 -11 44 -11 22 -20 51 -20 65 0 33 -31 82 -61 97 -24 13 -158
63 -166 63 -2 0 -2 -4 2 -9 3 -6 -7 -6 -27 0 -22 6 -34 5 -39 -3 -14 -22 -140
22 -171 59 -14 18 -15 18 38 -4 14 -5 15 -3 5 15 -10 18 -9 22 3 22 8 0 17 -4
20 -9 3 -5 20 -14 38 -20 l32 -11 -24 25 c-30 32 -14 32 30 0z m1330 0 c-28
-30 -22 -31 30 -5 22 11 42 20 45 20 3 0 1 -9 -5 -20 -8 -15 -8 -20 3 -20 7 0
18 5 25 12 6 6 15 9 19 5 9 -10 -26 -35 -59 -42 -16 -4 -28 -10 -28 -15 0 -11
-68 -22 -83 -13 -36 22 -200 -20 -249 -64 -26 -24 -48 -67 -48 -95 0 -13 -9
-38 -21 -57 -14 -24 -17 -36 -9 -41 8 -5 4 -16 -13 -35 -28 -33 -65 -30 -90 8
-21 32 -26 73 -9 69 8 -1 11 2 7 8 -8 13 5 80 16 80 5 0 9 -8 9 -17 1 -12 6
-8 17 12 19 37 43 65 55 65 5 0 4 -9 -2 -21 -7 -11 -9 -23 -7 -26 3 -2 10 4
16 15 18 34 101 94 144 104 23 5 69 22 102 38 33 16 62 24 65 19 4 -5 21 2 40
16 44 32 60 32 30 0z m-66 -227 c12 -8 -17 -53 -48 -73 -32 -21 -109 -22 -141
-1 -33 22 -42 59 -21 91 18 28 36 33 36 11 0 -24 29 -46 61 -46 22 0 29 5 29
20 0 11 7 23 15 26 8 4 15 13 15 21 0 10 8 5 22 -13 12 -16 27 -32 32 -36z
m100 40 c-5 -8 -2 -9 11 -5 14 6 16 3 12 -13 -4 -17 -2 -20 15 -14 32 10 16
-11 -99 -130 -42 -44 -98 -70 -155 -70 -27 0 -48 -3 -48 -8 0 -4 -7 -8 -15 -8
-18 0 -12 -40 11 -77 13 -20 13 -23 -1 -23 -22 0 -19 -13 10 -40 28 -27 26
-33 -12 -35 -19 0 -33 9 -53 37 -30 41 -48 107 -31 117 5 4 11 27 13 51 l3 45
95 6 c133 8 164 26 214 127 14 28 29 52 32 52 3 0 2 -5 -2 -12z m-1398 -40
c23 -51 80 -106 123 -118 20 -5 71 -10 113 -10 75 0 78 -1 84 -25 3 -14 4 -39
0 -56 -3 -19 -2 -28 4 -24 15 9 12 -31 -5 -73 -24 -56 -50 -79 -85 -74 l-29 4
29 32 c23 23 26 32 15 34 -18 4 -18 3 0 38 19 37 19 64 0 64 -8 0 -15 3 -15 8
0 4 -22 8 -49 8 -62 1 -153 52 -187 105 -12 20 -33 45 -46 55 -37 29 -45 48
-18 39 18 -6 21 -4 16 12 -4 14 -1 19 13 19 13 0 26 -13 37 -38z m152 9 c22
-44 92 -33 92 15 0 25 16 23 34 -4 62 -88 -91 -156 -174 -78 -35 33 -37 48 -9
79 25 27 40 24 57 -12z m-512 -52 c-3 -9 0 -15 9 -15 8 0 15 -7 15 -15 0 -8 8
-15 18 -15 28 0 34 -11 14 -26 -16 -12 -16 -13 3 -14 11 0 26 -4 34 -9 12 -8
12 -12 2 -25 -11 -14 -11 -16 3 -16 13 0 16 -5 11 -22 -12 -40 -11 -43 23 -40
23 1 32 -2 32 -13 0 -11 5 -12 25 -5 22 8 25 7 25 -14 0 -21 6 -24 85 -35 88
-14 100 -25 37 -37 l-37 -7 28 -9 c15 -6 24 -14 21 -20 -4 -7 -2 -8 4 -4 20
12 111 -5 105 -19 -3 -8 5 -15 19 -17 21 -3 21 -5 -13 -25 -20 -13 -51 -26
-69 -30 -29 -5 -32 -4 -27 12 6 14 3 16 -18 11 -20 -5 -23 -3 -18 10 5 14 1
16 -20 12 -15 -3 -27 -1 -27 3 0 5 -7 9 -15 9 -21 0 -19 9 8 31 l22 18 -37 1
c-21 0 -38 4 -38 10 0 5 -17 12 -37 15 -81 13 -86 15 -73 30 9 11 6 17 -14 29
-14 9 -37 23 -51 31 -14 8 -22 21 -19 29 3 7 -2 16 -11 19 -8 4 -20 18 -25 32
-5 14 -17 25 -26 25 -10 0 -14 5 -11 14 3 8 1 17 -6 19 -9 3 -8 8 2 21 13 15
13 19 0 26 -11 8 -11 12 6 24 26 20 49 20 41 1z m2128 1 c23 -12 24 -15 11
-26 -14 -11 -13 -14 2 -26 17 -12 17 -13 1 -19 -9 -4 -14 -13 -12 -20 3 -7 -4
-16 -15 -20 -12 -3 -19 -10 -16 -15 3 -5 -3 -17 -15 -27 -11 -10 -20 -25 -20
-34 0 -9 -12 -21 -27 -28 -56 -25 -77 -42 -62 -52 20 -13 -6 -29 -47 -29 -16
0 -39 -7 -50 -15 -10 -8 -35 -15 -54 -15 -35 -1 -35 -1 -12 -17 21 -15 33 -41
12 -28 -6 3 -13 0 -16 -8 -3 -9 -14 -12 -31 -9 -21 4 -25 2 -20 -12 5 -13 2
-15 -18 -10 -20 5 -24 3 -19 -10 3 -9 2 -16 -3 -16 -20 0 -79 23 -95 38 -18
15 -15 37 4 26 8 -5 9 -1 5 10 -6 16 -2 18 28 14 19 -2 35 0 35 4 0 4 8 8 19
8 10 0 34 7 52 15 31 13 32 14 9 15 -14 0 -36 7 -49 14 -22 12 -17 14 65 27
83 13 89 16 86 37 -3 24 4 27 28 12 9 -6 17 -5 22 3 4 6 19 12 35 13 28 1 32
12 18 47 -6 13 -2 17 15 17 20 0 20 1 6 16 -21 20 -12 34 22 34 20 0 23 3 14
12 -18 18 -15 28 8 28 11 0 20 7 20 15 0 8 7 15 16 15 10 0 14 6 10 15 -7 19
4 19 38 1z m-1194 -233 c22 -16 23 -16 17 0 -11 28 9 19 41 -18 17 -19 34 -50
38 -70 9 -49 20 -52 28 -7 3 20 19 54 36 75 32 38 57 50 46 22 -5 -14 -4 -14
16 0 13 8 33 15 47 15 l24 0 -27 -26 c-31 -31 -34 -49 -7 -34 37 19 40 10 14
-47 -21 -46 -26 -71 -26 -137 0 -74 4 -88 42 -167 31 -66 41 -99 41 -135 l-1
-49 -15 28 c-17 31 -28 36 -19 8 3 -10 1 -29 -4 -42 l-10 -24 -7 23 c-9 30
-19 28 -22 -5 -2 -30 -22 -57 -23 -32 0 8 -4 5 -9 -7 -8 -20 -82 -64 -107 -64
-26 0 -102 42 -108 60 -3 11 -11 19 -18 17 -6 -1 -13 8 -15 21 -3 21 -22 32
-22 12 0 -5 -4 -10 -10 -10 -5 0 -10 17 -10 38 l0 37 -21 -30 -21 -30 5 55 c3
35 19 84 44 135 35 74 38 87 38 165 -1 70 -5 94 -26 138 -26 52 -24 61 12 42
25 -14 24 1 -2 34 -19 24 -19 26 -2 26 10 0 29 -8 43 -17z m-740 -212 c0 -5
15 -12 33 -16 17 -4 49 -12 69 -17 32 -9 36 -13 25 -26 -10 -13 -2 -14 66 -10
42 3 77 2 77 -2 0 -5 -16 -22 -35 -38 -27 -25 -31 -31 -17 -34 23 -5 -29 -33
-93 -49 -38 -10 -49 -9 -55 1 -6 10 -12 11 -22 3 -7 -6 -28 -11 -46 -11 -29
-1 -33 2 -29 18 4 16 2 18 -13 10 -28 -15 -30 -13 -20 16 8 19 7 31 -2 41 -9
11 -9 16 3 24 8 5 19 9 24 9 6 0 1 7 -9 15 -18 13 -18 15 -2 21 14 5 15 9 4
15 -9 6 -10 9 -1 9 7 0 10 7 7 15 -4 10 0 15 15 15 12 0 21 -4 21 -9z m1746
-16 c-3 -16 1 -28 12 -35 16 -9 16 -9 0 -10 -24 0 -23 -8 5 -30 20 -16 20 -19
5 -25 -14 -6 -15 -11 -6 -31 13 -29 4 -42 -17 -24 -13 10 -15 9 -15 -7 0 -15
-7 -20 -32 -20 -18 0 -39 4 -45 10 -9 6 -13 6 -13 -3 0 -16 -71 -4 -130 22
-37 16 -42 21 -26 27 16 6 14 10 -18 35 -20 15 -36 31 -36 35 0 4 34 6 75 3
63 -4 74 -2 70 10 -6 15 23 27 103 43 18 4 30 11 26 16 -3 5 6 9 21 9 22 0 25
-4 21 -25z m-1448 -317 c11 -24 29 -52 42 -63 l23 -20 -5 33 c-5 36 7 53 17
23 3 -10 14 -26 25 -36 19 -17 19 -16 14 21 l-6 39 26 -30 c24 -29 25 -29 26
-7 0 12 3 22 8 22 10 0 42 -59 42 -78 0 -40 49 -89 130 -131 55 -29 88 -53
101 -74 13 -23 19 -27 19 -14 0 11 5 15 11 11 6 -3 9 -19 7 -35 -6 -37 7 -38
19 -2 l10 28 12 -23 c18 -33 -1 -74 -51 -114 -59 -46 -100 -57 -221 -58 -85 0
-115 4 -138 17 -27 16 -31 16 -79 -4 -59 -25 -65 -22 -12 7 l37 21 -110 -5
c-83 -3 -101 -2 -75 6 19 5 127 11 240 12 189 1 230 6 230 24 0 4 -56 7 -124
7 -124 0 -125 0 -155 29 l-31 30 -62 -22 c-33 -12 -63 -20 -65 -18 -4 3 43 22
126 52 33 11 -12 27 -88 32 -114 6 -239 -36 -357 -123 l-49 -36 44 41 c25 22
76 57 115 76 l71 36 -77 -6 c-43 -3 -97 -8 -120 -11 -42 -5 -42 -4 -8 5 19 5
94 14 165 20 126 10 215 24 244 40 20 11 -144 48 -270 61 -92 9 -181 7 -259
-7 l-25 -4 25 12 c45 21 299 14 415 -12 55 -12 115 -25 133 -27 18 -3 37 -13
42 -23 14 -27 96 -47 187 -47 91 0 102 11 20 22 -28 4 -59 14 -68 22 -9 7 -34
17 -55 20 -22 3 -46 11 -54 18 -34 28 -89 45 -160 48 l-75 3 78 2 c87 2 101
18 32 38 -32 9 -35 12 -18 16 12 3 33 -2 50 -13 15 -10 38 -19 50 -19 12 0 55
-13 96 -30 42 -16 83 -30 92 -30 29 0 10 24 -24 31 -18 4 -46 19 -62 35 -25
24 -29 25 -29 9 0 -17 -2 -16 -25 5 -14 13 -37 43 -51 67 -30 51 -38 54 -29
11 5 -25 4 -29 -4 -18 -10 14 -16 130 -6 130 2 0 13 -19 23 -42z m1137 -55
c-4 -24 -10 -43 -15 -43 -5 0 -7 15 -4 33 6 32 6 31 -23 -13 -17 -25 -43 -56
-58 -70 l-27 -25 7 25 c7 23 5 22 -34 -13 -22 -20 -49 -37 -60 -37 -10 0 -24
-7 -31 -15 -20 -25 20 -19 105 15 42 17 85 30 96 30 12 0 33 8 47 18 44 31 56
36 48 24 -5 -8 6 -11 36 -8 24 2 34 2 23 -1 -64 -14 -125 -35 -125 -43 0 -6
30 -11 68 -12 l67 -1 -70 -7 c-74 -7 -95 -13 -135 -40 -14 -10 -41 -20 -61
-24 -21 -4 -42 -13 -48 -20 -7 -8 -39 -17 -71 -21 -33 -4 -60 -10 -60 -15 0
-12 161 -10 200 3 19 6 44 21 55 32 11 12 36 25 55 28 19 4 78 15 130 26 111
24 284 35 355 24 39 -7 19 -9 -90 -9 -90 -1 -171 -7 -228 -18 -106 -21 -168
-42 -147 -49 41 -14 114 -26 195 -32 110 -7 234 -25 240 -34 2 -4 -29 -1 -68
6 -40 7 -94 12 -122 12 l-50 0 50 -22 c64 -28 116 -60 140 -87 10 -11 -10 -1
-46 23 -37 25 -103 56 -152 72 -74 24 -97 27 -167 23 -115 -7 -118 -19 -15
-57 48 -18 85 -35 83 -37 -3 -2 -39 9 -83 24 -56 19 -79 24 -82 15 -2 -7 -20
-22 -39 -34 -27 -16 -48 -20 -92 -18 -115 5 -177 0 -164 -13 8 -8 71 -12 209
-13 228 -2 353 -20 446 -66 31 -16 57 -31 57 -34 0 -5 -49 15 -65 26 -29 21
-171 50 -265 55 l-105 5 48 -26 c62 -34 61 -42 -3 -10 -58 29 -72 31 -105 9
-20 -13 -47 -15 -149 -13 -122 4 -124 4 -172 38 -27 19 -57 44 -66 55 -19 23
-23 63 -8 86 5 8 10 10 10 4 0 -5 7 -19 16 -30 13 -16 15 -16 10 -2 -3 10 -2
28 3 40 7 20 8 20 15 2 7 -17 9 -16 20 11 10 23 32 39 89 68 83 42 132 90 141
141 3 17 15 45 26 61 l20 30 0 -30 1 -30 24 28 25 28 0 -30 c0 -17 5 -31 10
-31 6 0 10 3 10 8 0 4 10 18 21 32 l21 25 -6 -40 -5 -40 34 37 c19 21 35 46
35 56 0 10 3 22 7 26 13 12 24 -47 18 -91z m-565 -414 c0 -5 7 -21 17 -35 12
-19 18 -22 24 -12 6 9 17 4 42 -20 20 -19 36 -29 39 -22 2 8 14 6 40 -5 47
-19 54 -19 37 1 -12 15 -10 16 21 8 19 -5 66 -8 104 -7 38 1 65 -2 60 -6 -15
-14 -75 -31 -108 -31 l-31 -1 24 -19 c13 -11 29 -20 37 -20 17 0 19 -20 2 -20
-8 0 -4 -8 7 -17 l20 -15 -20 5 c-11 2 -29 8 -40 12 -17 6 -17 4 4 -14 28 -25
21 -27 -19 -6 -34 18 -38 11 -12 -18 17 -20 16 -20 -18 -14 -19 3 -46 9 -59
13 -20 6 -22 4 -18 -12 20 -71 20 -71 -27 -22 -48 49 -53 49 -36 1 l10 -28
-26 30 -26 30 7 -37 c8 -51 -1 -48 -27 10 l-20 47 -13 -35 -12 -35 -7 33 c-4
17 -11 32 -15 32 -4 0 -17 -22 -28 -50 -24 -57 -47 -69 -32 -18 14 51 10 55
-17 23 -18 -21 -24 -24 -19 -10 20 56 15 58 -29 10 l-46 -50 7 44 c6 41 5 44
-13 37 -10 -5 -37 -10 -59 -13 -39 -5 -40 -5 -17 12 33 24 27 38 -9 20 -17 -9
-33 -14 -36 -12 -2 3 5 11 17 17 29 16 19 23 -14 11 -17 -7 -26 -7 -26 -1 0 6
6 10 13 11 6 0 3 4 -8 8 -18 7 -16 10 18 24 20 9 37 20 37 25 0 5 -22 12 -48
16 -27 3 -57 13 -68 20 -17 13 -10 14 56 13 41 -1 87 1 102 6 22 6 26 4 22 -8
-8 -19 3 -19 36 0 29 17 54 19 45 5 -13 -22 13 -8 40 20 26 27 30 29 36 13 5
-15 9 -12 24 17 10 19 22 41 27 47 11 14 28 8 28 -8z"/>
<path d="M154 3250 c45 -135 49 -154 43 -229 -3 -42 -22 -132 -42 -201 -65
-219 -57 -389 24 -555 29 -58 95 -145 110 -145 4 0 -7 30 -26 66 -42 85 -45
140 -7 154 79 31 163 -118 164 -291 1 -63 15 -32 35 76 13 65 16 120 12 195
-6 126 -30 199 -87 262 l-39 43 20 -54 c37 -99 10 -168 -48 -125 -67 50 -90
179 -58 333 31 153 21 282 -30 381 -24 46 -80 117 -71 90z"/>
<path d="M4821 3223 c-91 -111 -109 -226 -69 -459 24 -143 19 -204 -22 -271
-61 -102 -134 -63 -96 51 10 28 20 58 22 66 3 8 -9 -1 -27 -20 -70 -78 -106
-211 -96 -355 5 -72 35 -220 43 -213 1 2 7 39 13 83 15 115 27 148 69 193 47
52 74 60 102 32 26 -26 21 -57 -18 -140 -14 -30 -28 -59 -30 -65 -13 -30 74
68 97 110 57 100 84 213 83 340 -2 93 -10 138 -57 290 -39 126 -40 244 -3 333
14 34 24 62 23 62 -2 0 -17 -17 -34 -37z"/>
</g>
</svg>
