<svg xmlns="http://www.w3.org/2000/svg" viewBox="0 0 1848.07 607.6"><defs><style>.cls-1{fill:#232222;}.cls-2{fill:#bc370f;}.cls-3{fill:#fe6600;}.cls-4{fill:#fe6500;}.cls-5{fill:#bc380f;}.cls-6{fill:#f69e32;}.cls-7{fill:#fcc22b;}.cls-8{fill:#fcc12b;}.cls-9{fill:#fd6500;}.cls-10{fill:#fcc22a;}.cls-11{fill:#fd6501;}.cls-12{fill:#fac12b;}.cls-13{fill:#bb370e;}.cls-14{fill:#f59e32;}.cls-15{fill:#fc6601;}.cls-16{fill:#f5dd8a;}.cls-17{fill:#f5de8b;}.cls-18{fill:#fac02a;}.cls-19{fill:#fac02c;}.cls-20{fill:#f8c02b;}.cls-21{fill:#f4dd8b;}.cls-22{fill:#f5bb29;}.cls-23{fill:#050303;}.cls-24{fill:#eed888;}.cls-25{fill:#f1db89;}.cls-26{fill:#f3b827;}.cls-27{fill:#eb972f;}.cls-28{fill:#eccc7a;}.cls-29{fill:#fc850a;}.cls-30{fill:#ecd07c;}.cls-31{fill:#cd9923;}.cls-32{fill:#a57a1a;}.cls-33{fill:#e8961c;}.cls-34{fill:#e6b85d;}.cls-35{fill:#d7ba6c;}.cls-36{fill:#be9022;}.cls-37{fill:#cf410e;}.cls-38{fill:#eb5c09;}.cls-39{fill:#d54b12;}.cls-40{fill:#fb6804;}.cls-41{fill:#f8992d;}.cls-42{fill:#fb720a;}.cls-43{fill:#fb841a;}.cls-44{fill:#fb7f15;}.cls-45{fill:#f97510;}.cls-46{fill:#f49c31;}.cls-47{fill:#f19a2f;}.cls-48{fill:#fb932d;}.cls-49{fill:#f26406;}.cls-50{fill:#f36003;}.cls-51{fill:#e85906;}.cls-52{fill:#f7ac27;}.cls-53{fill:#e75805;}.cls-54{fill:#c73e10;}.cls-55{fill:#cd410e;}.cls-56{fill:#e05707;}.cls-57{fill:#fc7c0d;}.cls-58{fill:#fca51e;}.cls-59{fill:#f9840b;}.cls-60{fill:#bd390e;}.cls-61{fill:#fbc12b;}.cls-62{fill:#030201;}.cls-63{fill:#c44811;}.cls-64{fill:#e2a520;}.cls-65{fill:#ca5204;}.cls-66{fill:#d56019;}.cls-67{fill:#e99d22;}.cls-68{fill:#c75313;}.cls-69{fill:#c65a15;}.cls-70{fill:#f7af28;}.cls-71{fill:#f6b228;}.cls-72{fill:#de7a20;}.cls-73{fill:#d84e07;}.cls-74{fill:#e2851d;}.cls-75{fill:#e8aa29;}.cls-76{fill:#ec9726;}.cls-77{fill:#f78119;}.cls-78{fill:#f7871d;}.cls-79{fill:#f89628;}.cls-80{fill:#fa9228;}.cls-81{fill:#fc7715;}.cls-82{fill:#fb7713;}.cls-83{fill:#d66314;}.cls-84{fill:#f5b628;}.cls-85{fill:#f8a72f;}.cls-86{fill:#fcb12f;}.cls-87{fill:#fe951c;}.cls-88{fill:#f88907;}.cls-89{fill:#c64d14;}.cls-90{fill:#df8521;}.cls-91{fill:#f8d484;}.cls-92{fill:#ddb365;}.cls-93{fill:#d4b36b;}.cls-94{fill:#e8c77b;}.cls-95{fill:#f8b52b;}.cls-96{fill:#fb8e11;}.cls-97{fill:#fc800b;}.cls-98{fill:#e95704;}.cls-99{fill:#e4570a;}.cls-100{fill:#d3450a;}.cls-101{fill:#d84906;}.cls-102{fill:#c8430c;}.cls-103{fill:#e45005;}.cls-104{fill:#fd861c;}.cls-105{fill:#77240c;}.cls-106{fill:#ca3d07;}.cls-107{fill:#f97d13;}.cls-108{fill:#f97f1c;}.cls-109{fill:#eda229;}.cls-110{fill:#d56a1a;}.cls-111{fill:#f3a929;}.cls-112{fill:#fdaf36;}.cls-113{fill:#f49124;}.cls-114{fill:#f6df8c;}.cls-115{fill:#fbbf2c;}.cls-116{fill:#fbbe2b;}.cls-117{fill:#f9ad24;}.cls-118{fill:#fba020;}.cls-119{fill:#dfa720;}.cls-120{fill:#d9a326;}.cls-121{fill:#bd9816;}.cls-122{fill:#f9d367;}.cls-123{fill:#ff953f;}.cls-124{fill:#ff9535;}</style></defs><g id="Layer_2" data-name="Layer 2"><path class="cls-1" d="M720.59,517.2c-5,5.09-3.24,15-1.89,22.73,1.18,6.72,3.7,21.05,12.67,24.91,14,6,41.07-14.62,38.74-30.42C767.59,517.3,730.7,506.89,720.59,517.2Z" transform="translate(-43.16 -259.22)"/><path class="cls-2" d="M1067.73,676.18c-26.9,23.55-58.62,37.82-89.87,53-14.3,7-28.61,13.9-41.91,22.94-4,7.46-12.32,9.15-17.73,15-3.81,4.11-8.26,7.83-12.48,11.65-6.08,5.51-11.59,11.49-15.55,19.06-1.69,3.22-4,6.57-8.13,6.9-2.24-3.43-.83-6.91.24-10.13,12.65-38,34.54-67.9,67.59-88.25,16.65-10.25,34.32-18.62,49.82-31,24.42-19.57,41.82-43.77,46.38-76.87a29.63,29.63,0,0,1,1.53-6.41c1.12-1.61,1.62-4.24,4.43-3.18,3.48,5.92,3,12.86,3,19.14-.31,24-5.41,46.56-21.8,64.58a31.59,31.59,0,0,1-2.8,3c0-.07.17,0,.22-.09,1-1.07,1.93-2.13,2.89-3.16,20.27-24.67,25.72-53.66,21.25-85.2-5.36-37.86-18.49-72.21-42-101.63-1.52-1.9-3.67-3.87-2-6.94,14.85,12.26,25.94,27.93,35.67,44.8,3.11,5.39,5.86,11,8.78,16.53,7.32,6.39,7.87,16.12,10.72,24.7.32,1,.16,2.18.74,3.15.14.87.95,0,.17.34-.15,0-.3-.15-.27-.59a62.11,62.11,0,0,1,8.61-27.66c6.18-23.78,6.45-47.89,3.19-72.11-1.16-8.61-3.18-17.08-4.82-25.68,15.23,6.12,39.34,66.39,40.89,105,1.6,40-5.85,77.68-29.37,110.29a19.85,19.85,0,0,1-7.6,9.49l.07-.14c-1.53,2.34-4,3.62-5.76,5.7l-.15.15C1070.4,673.83,1069.71,675.77,1067.73,676.18Z" transform="translate(-43.16 -259.22)"/><path class="cls-3" d="M1010.72,478.48c11.82,14.83,22.26,30.6,29.88,48.41,10.23,23.92,17.45,48.93,18,75.13.56,27-4.54,52.82-25.56,71.62-.54.6-1,.57-1.53-.1,13.64-18.48,20.5-39.59,21.07-63,.18-7.23-.67-14.5-1-21.75-2.09-2.61-.7-5.09-.4-7-1.35,2.94-.54,7.19-1.94,10.89-3.19,35.16-20.22,61.62-45.76,82.81-16.1,13.36-34.71,22.16-52.26,32.88-29.62,18.1-50.28,44.35-63.36,77.7-2.39,6.09-5,12.08-5.1,18.87.6,2.69.13,5.39-2.74,5.37s-2.05-3.33-2.27-5.29c-.64-5.66.9-11.37-.14-17,5.36-40.45,20.91-75.18,50.51-102,4.07-4.82,9.3-8.13,13.89-12.06l-.4.26c-4.75,4.11-9.79,7.62-14.51,11.6-2.23,2.19-4.45,4.41-7.7,4.75a2.91,2.91,0,0,1-2.82-2.2c-.33-3.54,2-5.57,4-7.78,9.83-11.22,21.81-19.3,34.3-26.65,7-4.13,14.11-8.18,20.68-13.15,1.84-1.39,3.78-2.72,6.2-2.66a4.5,4.5,0,0,1,2.75,1.72c2.46,1.65,3.53-1.14,5.24-1.88,14.53-10.86,19.67-27,22-44.62a187.49,187.49,0,0,0,.29-45.29,22.37,22.37,0,0,1,.12-7.21c.61-1.69.88-3.67,3-4.13,2.06.5,3.07,2.2,3.77,4,6,15.75,7.67,32.09,5.83,48.88-.23.89,1.29-.27.52,0-.23.09-.29-.1-.28-.58.86-25.28,2.4-50.6-8.15-74.53-9.3-21.09-22.79-38.73-38.4-54.74-2-2.09-4.78-3.76-4.11-7.54,1-.61,1.84-.83,2.5.44l2.52,1.31c4.71.83,9,2.39,11.39,7.33a.62.62,0,0,0,.77.41,10.42,10.42,0,0,1,6.67,5Z" transform="translate(-43.16 -259.22)"/><path class="cls-4" d="M807.5,547.66c.14,2.67.29,5.34.43,8,1.3,2.06-.44,5.21,2.17,6.8,1.89,1.74,4.16.62,6.24.94,2.25.88,5.58-1.31,6.72,2.68-6.59,3.22-13.61,4.8-20.7,6.07-1.41.21-3-.15-3.86,1.61.47,2,2.11,3.83,1,6.12-1,1.46-2.72,1.57-3.86,2.68-.88,2.68,1.38,5.91-1.28,8.26a4.87,4.87,0,0,1-3.3,1c-1.82-.38-3.68-1.26-5.28.6-8.07,11.4-18.9,13.11-31,9.93a53.79,53.79,0,0,1-10.57-3.66c-2.49-.8-2.41-3.73-3.9-5.36a10.16,10.16,0,0,1-3.44-6.81c.46-2.22.17-5,3.48-5.07,3.34,1.18,5.92,3.88,9.33,5.05,8.14,2.76,15.88-.19,20.35-7.94,3.92-6.81,4.51-14.56,5.62-22.14,2.34-16,5.64-31.61,14.51-45.2,2.5-3.82,5.06-7.6,9.78-8.56a3.5,3.5,0,0,1,3.87,2.48,5,5,0,0,1,0,1.92,30.53,30.53,0,0,0-2.12,4.92c.67-.62.66-2.11,1.43-3.16,6.55-6.91,14.74-9.48,23.64-10,15.42-.94,18.88-5,17.74-21.23a10.55,10.55,0,0,1,.16-2.63,4,4,0,0,1,2.39-3.15,2.76,2.76,0,0,1,2.44,1.27c1.2,2.34,1.48,4.88,1.16,8.57a17.12,17.12,0,0,0-1.81-10.28c-5.13-16.95-2.13-33.05,4.69-48.62,2.79-6.36,6-12.65,13.29-14.61a1.84,1.84,0,0,1,1.48,1.13c.78,6.79-4.44,11.62-4.89,16.94,8.56-26.05,33.85-45.58,59.25-45.05,1.76.56,3.85.38,4.87,2.52a2.09,2.09,0,0,1-.39,1.78c-1.15.88-2.59,1.08-3.62,1.59,2.67-.36,5.14-2.17,8-2.82,11.91-3.73,23.62-1.07,35.33,1.28,2.61.52,5.36.8,6.73,3.83-1.39,3.56-4.24,2.73-6.83,2.51A111.15,111.15,0,0,0,925,395.64a59.93,59.93,0,0,0-29.55,19.5c-2,2.45-4.48,6.82-7.92,4-3.77-3.12-.26-6.66,1.6-9.71.56-.92.93-2,1.55-2.83,1.17-1.25,2-2.83,3.11-4-.07.1-.1,0-.17,0-.85,1.11-1.47,2.26-2.36,3.21-7.14,11.5-15.51,22.28-18.33,36.36a79.55,79.55,0,0,1,27.79-17.36c2.9-1.05,5.92-2,9.09-1.3,3.33,1.82,5.72,4.73,8,7.75,5.26,8.63,13.08,15.15,17.61,24.41,2.18,4.47,4.54,8.85,6.47,13.45,1,2.37,2.18,4.83.4,7.43-3,1.87-5.57.07-8.14-1.16a138.77,138.77,0,0,0-25.63-9.28c-4.26-1.1-7.2-.28-9.14,4-1.36,3-3.83,5.11-5.65,7.75l-3.22,5A197,197,0,0,1,854,533c-5.12,5.1-8.21,5.47-11.55-.59-7.42-13.5-30.22-10.58-33.8,5.93C807.51,541.37,806.8,544.42,807.5,547.66Z" transform="translate(-43.16 -259.22)"/><path class="cls-5" d="M800.27,503.9c-10.72,7.91-14.77,20.16-18.39,32.58-2.7,9.25-3.62,18.9-5,28.43a45.35,45.35,0,0,1-4.55,14.93c-7,13.06-24.25,14.19-32.65,2.14-3.38-1.74-5.08-4.76-5.77-8.55-.64-2.86-1.62-5.65-1.82-8.63,1.29-6.55,4.68-10.84,11.2-11.77a6.41,6.41,0,0,0,3.69-2.61,93.93,93.93,0,0,1,7.93-10c1.11-1.2,3.52-2.08,2.2-4.69a14.4,14.4,0,0,0-4.54-2.09c-4.78-1.52-7.79-5-8.67-10.22-.94-5.57,1.17-10,5.32-13.24,6.08-4.76,13.15-7.53,20.08-10.35,4.13-1.68,7.39-4.78,11.35-6.38-.09,0,.22-.16.22-.16a2,2,0,0,0-.33,0,3.09,3.09,0,0,1-1.9-.39,2.7,2.7,0,0,1-1.12-2.25c.44-2.36,2.11-3.72,3.69-5.14a44.86,44.86,0,0,0,6.73-6.84c8-11.15,17.88-19.25,30.58-23.74,6.2-2.19,10.71-7.41,13.78-14.09-2.25,1.5-4.63,3.47-6.75.94-1.68-2,.14-4.17,1.13-6,2.35-4.41,4.19-9.12,6.82-13.37,4.09-6.62,9.06-12,16.71-13.72,2.33-.32,4.61-.88,6.92-1.33a11,11,0,0,0,3.86-.73c-2.05.85-4.31.5-6.37,1.31-2.36.44-4.81.5-7,1.82-4.37,1.07-8.08,3.87-12.28,5.4-2.08.75-4.08,1.95-6.41,1.16a2.65,2.65,0,0,1-1.63-2.23c5.25-6.95,13.11-9.24,20.31-12.58,6.51-3,13.56-3,20.58-2.88,2,0,4.64,1.26,6-1.65.39-2.54-4-4.14-1.24-7.12a137.44,137.44,0,0,1,51.93-18.34c33.57-4.71,65.21,2.87,95.93,16.6,2.14.52,3.91,2.13,6.14,2.38,9.78,3.93,17.14,11.58,24.8,18.68,2.24,2.09,3.66,5.13,6.26,7.06a4.25,4.25,0,0,1,1.33,5.75,1.71,1.71,0,0,1-1.67.26l-2.39-1.69c-10-3.29-17.85-10.74-26.83-16-2.39-3-5.74-4.19-9.09-5.36-12.76-6.09-26.45-9-39.68-13.54a18.77,18.77,0,0,0-7.36-1.6c-1.88-1.46-4.07-1.22-6.2-1.3-2.21-.85-4.45-1.58-6.45-1.29a13.91,13.91,0,0,1,6.31,1.27c2.09.19,4.3-.27,6.14,1.27a25.11,25.11,0,0,1,6.41,1.15A91.71,91.71,0,0,1,989,388.58c2.26,1,4.44,2.32,4.81,5.36a2.88,2.88,0,0,1-2.66,2.6c-2.35.14-4.37-1.14-6.57-1.67-3.83-1.46-8.52-.73-11.24-5-14.2-5.18-28.78-5.37-43.5-3.66-1.44.26-3.32,2-3.7-1.27.33-.09.67-.17,1-.24a6.55,6.55,0,0,1,3-1.77c-2.62,1-5.4-1.19-8,.45-30.37,2.54-49.75,20-59.61,50.76-2.38-7.76-1.38-12.24,5-24.13.35-.52.61-1.1,1-1.59a1.16,1.16,0,0,0-1,.08c-16.67,14.95-19.9,34.81-18.19,56.47.19,2.39.59,4.76.89,7.14.37,1.42-.23,1.8-1.44,1.51l-1.16-1.41c-.64-.38-.93-1.27-1.76-1.38.44,1.34-.66,2.86.45,4.11.32,1.72.68,3.44,1,5.17,2,12.09-4.71,20.93-16.29,21.16-9.91.21-19.34,1.64-26.89,9.37-.59.9-1.49,2.09-2.36,1.11-1.76-2,.45-3.44,1.11-5.09h0c1.09-2.34,1.85-5,4.57-5.81.69-.4-.32.17.41-.25l-.3.19C805.37,502.54,802.65,502.77,800.27,503.9Z" transform="translate(-43.16 -259.22)"/><path class="cls-6" d="M1014.22,541.15c1.69,13.16,1.58,26.4,1.26,39.62a110.37,110.37,0,0,1-6.91,36.08,46.77,46.77,0,0,1-19.16,23.57c-1.29,1.11-2.23.57-3-.73-.44-2,.55-3.31,1.77-4.55,6.41-6.53,11-14.39,15-22.77.67-1.5,1.51-2.91,2.13-4.44-.72,1.81-1.81,3.43-2.45,5.29-3.52,7-7.22,13.84-12.47,19.53-2.44,2.62-4.81,5.49-8.5,6.24-11.18,9.15-23.9,15.59-35.92,23.26a111.55,111.55,0,0,0-28.59,25.9C916,693,911.81,695.41,909,699a16.44,16.44,0,0,0-2.1,2.3,20,20,0,0,1,1.55-1.75c3.74-3.42,6.44-8.13,11.3-10.1l6.31-5.24c1.93-.22,3.93-.54,3.72,2.65-7.43,9.16-16,17.14-22.84,26.95-13.35,19.19-20.84,40.89-25.64,63.91-.62,3-.78,6.14-2.61,8.71a29.42,29.42,0,0,1,.22-16.09C882.12,748,889.23,727,898.78,707c.17-3.62.82-6.94,4.58-8.31a.81.81,0,0,0,.4-.94c.94-3.2,2-6.3,4.79-8.3v0c1-4.95,2.31-9.69,7.28-11.88,2-1.07,1.07-3.89,2.76-5.13,1.37-5.06,5.07-8.37,8.09-12.18,14-11.27,28.59-21.82,41.45-34.63,5.15-5.12,8.77-11.66,12.07-18.33,1.16-2.37,1.89-5.58,5.46-5.24l-.12,7.66c-1,1.8-.12,3.74-.33,5.52,0-.08-.2.33-.2.33a2.32,2.32,0,0,0,.38.2c0-1,.71-1.37,1.29-1.87C1006.82,554.58,998.61,500,962.84,450c-1-1.39-2.06-2.71-3.6-4.72,4.22-.17,6.76,3,10,3.23,2.07.76,5.38-.48,5.3,3.74a247.73,247.73,0,0,1,27.33,31.32c15.53,21.4,25.73,45,26.12,72.58.17,12.1-.08,24.14-3.38,36-1.05-18.71-2.62-37.3-9.21-54.9C1012.31,537.56,1014,539.61,1014.22,541.15Z" transform="translate(-43.16 -259.22)"/><path class="cls-6" d="M868.7,629.81l3.82-5.26c4.65-6.25,6.39-14.56,12.35-19.89A37.29,37.29,0,0,0,890,591.58c1.2-2.71-1.25-6.75,2.71-8.46,3.36,1.09,3.31,4.21,3.38,7,.49,19.68-4.18,37.77-15,53.9-2.07,3.09-4.92,5.24-7.75,7.35-.65.47.29-.18-.41.31.24-.2.51-.37.79-.58a47.2,47.2,0,0,0,11.69-12.25c1.29-1.92,2.5-4,4.9-4.63a3.07,3.07,0,0,1,3.09,1.6c1.65,9.27-3.56,15.92-8.09,22.59a44.49,44.49,0,0,1-12.25,12.06A80.11,80.11,0,0,0,838.77,718c2.87-4.47,5.91-12,14.4-13.38A3.48,3.48,0,0,1,855,706.8c.73,3.28-.65,6.08-2,8.77-7.12,14.07-6.6,28.35-.62,42.5a57.83,57.83,0,0,1,4.7,22.25A229.52,229.52,0,0,0,863,820.7c-2,5.13-5.89,3.48-8.93,2.24-9.59-3.89-18.34-9.44-24.65-18.27a110,110,0,0,1-20-54.08c-.34-3.42-1.15-8.22,2.57-9.28,4.13-1.17,4.94,3.78,6,7a90.4,90.4,0,0,0,5.13,13.42c.46.86.92,1.74,1.36,2.63-.34-.63-.63-1.3-1-2-16.89-29.47-4.37-70.67,10.55-89.1,6.47-10.13,15.2-18.2,22.29-27.77C858.09,638.17,865.08,635.5,868.7,629.81Z" transform="translate(-43.16 -259.22)"/><path class="cls-7" d="M973.34,389.84l12.17,3.09c.31,1.39-.55,2.06-1.46,2.7a9.11,9.11,0,0,1-6.19.76c-8.44-1-16.79-.23-25.13,1a83.17,83.17,0,0,1,16-1.38c26.32.94,48.71,10.45,64.82,33.67a16.66,16.66,0,0,1,3,6.42,3.71,3.71,0,0,1-1.54,3.51c-2.37.94-3.93-.5-5.41-2.13-3.48-3.83-7.69-6.65-10.56-8.93,7.8,5,14.85,13,21.31,21.68a14.6,14.6,0,0,1,3.07,7.13c.06.88,0-.24,0,.64.61,8.85.61,8.85-8,12.41-8.37-7.22-17.35-13.66-24.85-22-24-18.95-51.41-26.09-80.88-25.63-1.23,0-2.46.26-3.69.4-5.28,2.69-10.64,4.61-16.4,1.54C894.44,428,881.82,436.4,870.14,447c2.26-17.07,10-30.66,21-42.43,1.19-.32,1.75,0,1.35,1.42-1.58,4.1-4.77,7.58-4.54,13.17,1.19-.81,2-1.09,2.46-1.71,14.61-21.17,35.73-27.19,58.79-28.66C957.28,388.3,965.31,389.2,973.34,389.84Z" transform="translate(-43.16 -259.22)"/><path class="cls-6" d="M1050.16,326.86q-3.54,9.13-7.09,18.26c-8.21,1.58-14.38-2.88-20.38-7.83-.18-1.73.78-2.42,2.16-2.74,2.86-.49,4.66,2.59,6.83,2.24-3.34-1.76-7.59-2.63-11.82-3.61a216.92,216.92,0,0,0-55.07-15.13c-16.41-2.12-32.9-3-49.5-1.25-11.73,1.25-23.43,2.7-35.12,4.25a9.73,9.73,0,0,1-7.19-1.38c-.45-.44-1.11-.92-1-1.55a85.19,85.19,0,0,1,7.85-28.68c.26-.54,1-.73,1.57-1,6.28,3.79,12.73,7.3,18.78,11.48,3.8,2.63,6.55,2.6,9.12-1.39,2.6-2.31,5.13-4.71,7.52-7.26a170.18,170.18,0,0,1,21.32-20.13c6.52-5.15,7.72-4.93,13.58,1.21,2.07,2.17,3.88,4.57,5.8,6.87,3.12,3,5.63,6.77,9.33,9.13,2.7,2.92,5.72,5.59,8,8.85,1.84,2.63,3.69,2.08,5.88,1.41s4.34-1.68,6.59-2.28c4.71-1.58,9.21-3.79,14-5.11,2.8-.78,5.64-1.62,8.23.68,3.3,7.71,3.66,16.42,7.28,24,2.25,1.14,4.82.81,7.12,1.74,6.34,2.69,13.34,2.29,19.72,4.79C1046.11,323.41,1048.86,323.9,1050.16,326.86Z" transform="translate(-43.16 -259.22)"/><path class="cls-7" d="M879.94,860.42l.79,1.46c1.94,1.21,3.37,2.56,1.24,4.93a123.35,123.35,0,0,1-43.72-10.7c-7.34-.21-12-5.3-16.68-10.38h0c-5.73-2.26-10.77-5.51-14.28-11-4.11-1.87-4.46-6.73-6.93-9.9l-1.31-1.56c-6.29-3.83-8.59-10.45-10.63-17.26-2.92-7.1-8.35-13.18-7.76-21.7-6.26-17.25-4.73-52.13,3.13-70.58,2.4,1.4.94,4.62,2.65,6.3,5.63,10.66,8.72,22.46,13.43,33.48.27.33.36,1,1,.66.44-2.21-.43-4.23-.53-6.34.69-7.67-.12-15.79,5.82-21.87a3.07,3.07,0,0,1,3.1.35c1.41,2.19,1.06,4.59.61,6.94A165.37,165.37,0,0,0,807.49,752a45.55,45.55,0,0,0,0,24c.48,2.88,1.43,5.75.52,8.72a3.53,3.53,0,0,1-2,2.13c-3.79-2.17-4-2.6-4.86-7.64,4.39,12.69,8,25.78,15.66,36.91a39.73,39.73,0,0,1,4.22,7.85c-.06-.08,0-.12-.08-.2-.77-1.91-.78-3.79,1.13-4.49s3.56.84,4.76,2.34c6,7.49,13.6,12.62,21.52,17.39,5.08,3.05,10.54,4.94,16.05,6.73A55.36,55.36,0,0,1,874,849.9,17.79,17.79,0,0,1,879.94,860.42Z" transform="translate(-43.16 -259.22)"/><path class="cls-8" d="M829.14,415.34c6-2.72,11.65-6.4,18.38-6.86,1.31-.54,2.66-1.18,2.54,1.35-13.52,5.63-17.09,19.87-23.84,31.71,4.64-.32,5.87-5.76,10.57-8-1.77,9-5.31,15.45-11.6,20.24-4.61,3.5-9.86,5.58-15.11,7.54a28.32,28.32,0,0,0-13.34,10.33,92.91,92.91,0,0,1-18.61,19.25c-.53,1.29-1.26,2.34-2.63,2.49.07,0,.15,0,.22,0a35.71,35.71,0,0,0,3.66-1.24l2.14-.27c1.25-.55,1.46.18,1.38,1.27-6.65,7-15.38,10-23.59,14a67.17,67.17,0,0,0-9.2,5.35,10,10,0,0,0-4.44,10.16,10.69,10.69,0,0,0,7.31,9c2.49,1,5.06,1.72,7.59,2.56-5.53,5.67-8.92,5.67-15.84,0h0a12.76,12.76,0,0,1-7.24-6.67c-1.3-3.32-3.4-5.17-7-5.34a13.48,13.48,0,0,1-9.87-5l1.44-1.47c1.86-5.2,6.58-7.61,10-11.16,8.65-8.91,19.23-15.46,27.68-24.69,1.39-1.52,3.25-1.77,5-2.18,9.16-6.94,17.14-15.36,25.65-23.12,1-1.49,1.85-3.23,3.89-3.42h0c.68-2.38,3.08-3.37,3.94-5.59-.43-3.39,1.07-6.3,2.08-9.33.29-2.53,1.16-4.57,3.79-5.13h0c1.21-2.1,1.76-4.77,4.33-5.7a38,38,0,0,0,9.82-5.17C821.77,418.29,824.93,415.49,829.14,415.34Z" transform="translate(-43.16 -259.22)"/><path class="cls-9" d="M806.74,784.78l-1.45-7.94a120.83,120.83,0,0,1,0-25.08,97.52,97.52,0,0,1,3.7-25.22,25.78,25.78,0,0,1,3.75-17.41c.54-4.79,4.07-8.17,5.23-12.67.58-1.58,1.09-3.22,2.43-4.32l0,0c1.48-7.5,6-12.68,11.48-17.15l2.16-1.75c-3.16,8.31-7.6,16-10.43,24.5-7.37,22.3-8.21,44.16,1.65,65.85a1.51,1.51,0,0,1-2.42,0c-4.67-6.3-6-14.39-10.12-22.1-2.36,7.11-.54,13.35.61,19.16,3.19,16.08,9.12,31.14,19.11,43.85,6.33,8,14.77,13.27,24.08,16.76,2.23.84,4.44,1,6.5-.6,3.28,9.38,5.69,19.14,10.74,27.74a1.73,1.73,0,0,1,.33,2.36c-20.43-4.08-38.19-13.31-51.67-30.94-1.32,2.57.65,4.13.67,6a.93.93,0,0,1-1.58.09c-12.15-14-21.23-35.29-20.76-48.73l4.58,9C806.74,786.85,807.2,786.31,806.74,784.78Z" transform="translate(-43.16 -259.22)"/><path class="cls-10" d="M872.81,318.53q21.5-2.28,43-4.56a198.34,198.34,0,0,1,35.23-.09c13.82,1,27.48,3,40.74,7.32,10.06,3.29,20,7,30,10.58a1.36,1.36,0,0,1-.22,1.86c-6.06.64-11.08-3.6-16.91-4.1-1.59-.14-3.09-1.06-4.74-1.12-3.67-1.55-7.8-1.35-11.45-3,3.3,1.49,7,1.46,10.35,2.69a149.45,149.45,0,0,1,21.12,6.25c1.45.57,2.57,1.17,3.14,2.7l20,8.09-1.48,6.42c-.85,1.15.55,3.38-1.64,3.9-1,.64-.93,1.65-.85,2.68-1.09,4.69-4.14,5.13-7.53,3.41-8.7-4.39-17.72-8-26.44-12.34-10.63-6.8-22.73-9.09-34.4-12.62-6.5-2-13.33-2.57-20.05-3.55a44.32,44.32,0,0,1-6.64-1.61c-1.36-.41-3-1-3-2.85,0-2.23,2-2.81,3.51-3a68.39,68.39,0,0,1,19.17,0A146.72,146.72,0,0,1,1000,335.94c.77.25-.26,0,.54.21.38.11.76.24,1.15.32a6.82,6.82,0,0,0-.94-.26c-17.66-7.39-36-11-54.87-12.62-23.45-2-46.17,1.38-68.77,7.38C865.62,334,856.25,339.5,853,352.83c-.16.62-.74,1-1.2,1.5-3.43.89-4.88-1.84-6.18-4.22-3.22-5.9-6.2-12-9.22-18-2.17-4.32-.73-7,4-8.07,6.08-1.4,12.31-1.62,18.46-2.49A127.08,127.08,0,0,0,872.81,318.53Z" transform="translate(-43.16 -259.22)"/><path class="cls-7" d="M985.67,602c-3.31,3.51-4.29,8.43-6.61,12.56-8.69,15.43-22.5,24.81-35.6,35-5.42,4.22-9.76,10.22-16.76,11.91.18-7.2,3.93-12,9.3-15.75,12.87-19.6,24.1-40.09,29.83-63.5,2-8.34,2.86-16.94,4.92-25.27a.8.8,0,0,0,.1-1.07c1-5.65-.91-11.09-1.1-16.68a164.92,164.92,0,0,1,.79-19.4c.18-1.55.15-3.19,1.68-4.1,1.45-.33,1.92.59,2.1,1.87,5.81,16.49,10.71,33.23,12,50.92C987.1,579.7,987.86,590.89,985.67,602Z" transform="translate(-43.16 -259.22)"/><path class="cls-11" d="M871.29,651c12.59-11,17.78-26.11,21-42.32a67.51,67.51,0,0,0,.61-25.54c-2.42-4.26-1.83-7.85,2.12-10.69,6.85,4.37,6.66,11.82,7.16,18.9.1,1.45-.56,3-.47,4.53,0,1.87,0,3.76,0,5,.39-.93-.21-2.67,0-4.33.08-1.29-.44-3.15.77-3.64,1.75-.72,2.46,1.13,3,2.55a24.66,24.66,0,0,1,1.18,8.45c-.48,24.78-7.1,47.16-22.28,66.41-4.94,6.27-11.76,9.5-17.75,14.05-1.45,1-2.65,2.33-4.12,3,.1-.08.06.11.14.07,1.3-1,2.45-2,3.67-2.87,1.67-1.25,3.12-2.93,5.36-3.06a2.83,2.83,0,0,1,2.67,2.31c.1,2.37-1.06,4.22-2.38,5.89-7.29,9.22-11.68,20-15.08,31.31-.26,1.46-2.65,3,.12,4.37a8.6,8.6,0,0,1,1.67,3.53c-.56,8.5-.55,17-.91,25.52s-.43,17.24-.64,25.85a51.29,51.29,0,0,0-4.9-16.09c-8.72-18-9.63-35.94.4-53.8A24.44,24.44,0,0,0,854,706.8c.54-1.62.15-2.24-1.46-1.54C845.68,710.6,840.93,718,835.67,725c3.73-21.65,12.86-39.59,30.35-52.08,11.31-8.06,21.54-17.19,25.56-31.91.4-1.46.61-3,.91-4.49.82-1.37-.46-2.78,0-4.08,0,.08.09-.24.09-.24a1.48,1.48,0,0,0-.2.32c-.29,1.45-1.57,1.8-2.39,2.65-3.88,7.37-8.28,14.19-16.23,17.23C872.37,653.21,871.2,653.45,871.29,651Z" transform="translate(-43.16 -259.22)"/><path class="cls-2" d="M857.76,754.48c-1-8.82-2-17.63-1.33-26.54.27-3.1.16-6.29,1.71-8.49a4.15,4.15,0,0,1-1.35,2,1.62,1.62,0,0,1-1.58-.26c2.94-14.2,8.84-26.72,18.51-37.11,0-2.31,0-2.31-2.4-1.24l-4.94,2.72c-1.23.35-1.59-.21-1.31-1.43,26.74-18.47,37.73-45.9,39.24-78.63a34.49,34.49,0,0,0-1-10.4c-.39-1.41-.5.62-.84,1-.12.11-.06.42-.08.64-.4.86-.79.85-1.16,0-1-8.26-2.49-16.35-6.21-23.78a4.47,4.47,0,0,1-1.53-4.28c1.2-4.41.67-9,.85-13.43.1-2.49-.4-5.32,2.55-6.59,3.42.39,4.8,3.29,6,6,11.35,26.07,13.78,53,6.69,80.85-.75,2.92-2,5.77-4.56,7.61-5.85,16.14-14.07,30.9-23.56,44.87C867.91,707.88,860.18,730.1,857.76,754.48Z" transform="translate(-43.16 -259.22)"/><path class="cls-11" d="M942.79,584.84c-3.32,12.76-7.64,25-16.79,34.52-1.8-1.74-1.75-4.11-1.13-6.13,6.26-20.52,2.57-40.76-1.28-61a8.87,8.87,0,0,1,0-2.72A29.49,29.49,0,0,0,925.1,560a7.11,7.11,0,0,1-.31,3.24c-.52,1.5-1.34,3.06-2.86,3.1-2,.07-2.71-2-2.93-3.64-1-7.25-4.32-13.64-6.43-20.48-.21-.69-.3-.8-1.45-.08a1.67,1.67,0,0,1-2.23-.1c-3.24-3.66-8.1-6.42-6.59-12.86,1.1-3.87,3.54-7.22,4-11.37,1.65-5.07.65-10.93,4.11-15.45a48.36,48.36,0,0,1,15.23,24.5,5.46,5.46,0,0,1,.41,1.66c0-1.07-.62-2-.75-3-.58-4.16-4.82-7.67-1.93-12.44a2.6,2.6,0,0,1,2-.19c2.47,1.12,3.57,3.52,4.8,5.8,10.52,19.53,16.73,40,12.7,62.9A19,19,0,0,0,942.79,584.84Z" transform="translate(-43.16 -259.22)"/><path class="cls-12" d="M1035.39,469.56c2.21-.67,1.25-7.08,5.9-3.63.68.5,2.81-.91,1.2-2.26-2.55-2.13-.88-4.26-.68-6.44,3.62-.22,4.93,2.83,6.38,5.39a115.93,115.93,0,0,1,8.82,21,14.66,14.66,0,0,1,1.48,5.34c1,1.52,1.13,3.34,1.55,5.07.71,1.5.66,3.24,1.25,4.77a51,51,0,0,0-1.5-5.58,8.64,8.64,0,0,0-1.27-4.19,15.44,15.44,0,0,0-1.42-5.31c-6-15.92-11-32.28-19.27-47.22-9.14-16.6-23.18-27.26-38.17-36.88-2.47-1.58-5.3-2.7-6.3-6-4.65-3.41-10.1-5-15.11-7.62-.24-1.25,0-2,1.4-1.41,14.23,2.44,28.35,5.26,41,13.33a7.75,7.75,0,0,0,1.26,3,149.83,149.83,0,0,1,17.49,20.86c1.67,2.45,3.63,4.79,3.11,8.19q5.65,11.22,11.29,22.45a14.68,14.68,0,0,1,2.64,6.88,43.82,43.82,0,0,0,3.87,12.88c.68,1.7,1.67,3.31,1.28,5.3l.15,1.34c2.36,3.74,2.38,7.95,2.18,12.21-.12,8.55,1.68,17,.57,27.73-7.77-17.91-15.44-33.88-27.62-46.66C1035.84,471.59,1034.71,471.16,1035.39,469.56Z" transform="translate(-43.16 -259.22)"/><path class="cls-13" d="M924.59,550.52c7.24,22.79,8.7,45.72,1.41,68.84-1.8,6.54-7.8,9.42-11.18,14.59-4-1-2.77-4.32-2.31-6.87.67-3.67,1.54-7.31,2.11-11,3.9-25.3-1.38-48.51-14.32-69.91-1.47-2.42-3.15-4.69-2.72-7.82l4.72-9.21c.83,4.89,4.64,8.08,7.5,10.87,8.13,7.92,10.3,11,11.63,24.69,2.14-1.1,1.78-3.16,2-4.94C923.07,556.57,921.4,553.2,924.59,550.52Z" transform="translate(-43.16 -259.22)"/><path class="cls-6" d="M942.79,584.84c-.4-7.89-.59-15.8-1.26-23.66-1.52-17.56-9.19-32.74-16.79-47.91a11.75,11.75,0,0,1-2-3.08,2.47,2.47,0,0,0,.1-.43s0,.49,0,.54a7.08,7.08,0,0,1,.57,2.95c.78,4.43,2.59,8.64,2.57,13.25.41,1.37-.12,1.64-1.25,1.23a45.49,45.49,0,0,0-8.5-15c-2.4-2.93-5.15-5.7-5.46-9.95-2.72-3.23-1.33-6.25.43-9.24h0c.3-3.76.1-7.54.51-11.29,2.54-3.42,4.87-.85,6.77.66A57.55,57.55,0,0,1,930.58,496c1.3,1.78,1.35,4.52,3.73,5.47a8.31,8.31,0,0,1,2.35,1.07c5.53,7,8.09,15.05,8.18,24.11-1.63,6,2.52,10.8,2.78,16.51a122.67,122.67,0,0,1-1.75,28.4Z" transform="translate(-43.16 -259.22)"/><path class="cls-14" d="M732.06,631.17l1.35-3.92c-.06-6.61,4.48-10,8.54-13.61,1.46-1.31,2.68.11,3.9.85a2.08,2.08,0,0,1,1.52,2.1c-2.46,5.5-5,11-9.7,14.78-1,2.82-1.18,5.82-1.6,8.45.07-3.24,2-5.81,4.07-8.27,2.61-.14,3-.76,3.58-3.85.93-4.53,2.6-8.67,6.92-10.84,3.33-.52,6.56-.66,9,2.5a3.54,3.54,0,0,1,.17,2c-.36,1.7-1.31,3.29-1,5.12,1.54,10.66-4.41,18.95-7.81,28-.39,1-1.06,2.1-2.22,1.89-2.11-.38-1.5-2.67-2.25-4.1,1.36,7.08,3.57,13.62,8.95,18.4.65.58,1.59,1.27,1.45,2-1.63,9.12,6.23,10.49,10.53,14.73a13.62,13.62,0,0,1,1.86,1.71c.35.51.71,1,1.1,1.46.37,2.08,2,3.94.9,6.75-12.79-6.49-21.31-17-27-30.41-2.07-4.27-4.13-8.55-3.54-13.59,0-2.27-.16-4.58.44-6.68.07-1-.81-.54-.61-.22.94,1.47-.16,3.2.17,4.84-.4,2.87,1.14,7.07-2.37,8-4.33,1.15-5.69-3.87-6.2-6.64C730.84,645.63,729.91,638.33,732.06,631.17Z" transform="translate(-43.16 -259.22)"/><path class="cls-15" d="M777.76,654.89c-6.86,8.91-7.87,19.63-8.27,30.53-1.17.62-1.59-.35-2.37-1-1.06-.89,1.94-5.31-2.4-3.11-3-4.3-2.69-9-1.54-13.77.14-.34.53-.76.46-1.06-.11-.5-.37-.41-.4.24-3.35-2.32-3.45-2.5-2.28-6.18,1.67-5.23,5.22-9.18,8.24-13.48,2.5-7.38.51-14.73-.2-22.06-.2-2.11-1.47-4.1-.38-6.31,2.62-3.28,5.55-5.12,9.48-2.33,9.84,14.55,12.12,30,4.84,46.55-1.06.46-1.55-.11-1.81-1.11-.39-1.72,0-3.45,0-5.17C781,654,779.61,653.87,777.76,654.89Z" transform="translate(-43.16 -259.22)"/><path class="cls-16" d="M990.67,363.35q-67.08-18.78-128.18,16.2c-7,4-7,4.1-10.07-3.61-.64-1.61-1.44-3.14-2.16-4.7l.2-.27-.15-.31c2.19-2.65,3.77-6.47,8.19-5,3.21,2.91,6.47,2.78,10.31,1.05,11.06-5,22.27-9.62,34.05-12.39,26.53-6.26,53-5.47,79.35,1.23,3.22.82,6.5,1.58,8.7,4.62A2.73,2.73,0,0,1,990.67,363.35Z" transform="translate(-43.16 -259.22)"/><path class="cls-17" d="M872.81,318.53c-.33,2.83-1.8,4-4.5,4.29-9,1.08-17.89,2.64-26.86,3.62-3.85.42-5.48,1-3,5.34,4.35,7.43,8.38,15.06,12.54,22.61,3.15.95,4.26,3.54,4.75,6.64-.73,3.3-2.83,4.17-5.71,3.67a2.5,2.5,0,0,0-1-.21c-1.85-1.11-1.74-3.37-2.59-5.07-5.16-11.24-10.16-22.57-15.56-33.67-2-4.1-1.85-5.54,2.88-5.84,10.32-.66,20.59-2,30.91-2.65,3.55-.24,4.94-1.66,5.7-5.31,1.51-7.29,3.89-14.38,5.35-21.68,1-5,2.79-4.5,5.61-1.85Z" transform="translate(-43.16 -259.22)"/><path class="cls-18" d="M807.7,538.41c1.93-10.18,6.32-14.84,15.83-16.79,8.78-1.79,16.42,1.34,20.61,9.59,2.61,5.13,4.3,4.19,7.59.89a214.28,214.28,0,0,0,33.92-43.65c1.25-2.14,2-5,4.93-5.59-.23,1.28-.45,2.56-.67,3.84-3.86,9.05-7.23,18.51-13.81,25.76-4.76,5.24-6.75,12.61-12.49,17-2.82,2.15-4.92,5.37-8.56,6.26h0c-2.19,4.38-4.42,8.73-9.75,9.42l-.09.07c-1.05,1.6-2.13,3.17-4,3.72-2.88.06-2.28-1.41-1.39-3.29a10.7,10.7,0,0,0-1-11.15c-2.42-.78-3.23-3.33-4.85-5-1.55-.62-3.45-.17-4.66-1.78a11,11,0,0,0-7.06-.06c-7.14.64-10.29,6.24-13.24,12.09C807.9,540,807.37,539.7,807.7,538.41Z" transform="translate(-43.16 -259.22)"/><path class="cls-19" d="M912.4,481.48c-.41-3-.81-6-1.37-10.11,14.83,8.44,24.69,20.73,33.53,34.15A148.9,148.9,0,0,1,956,537.12a10.64,10.64,0,0,1,1.26,4c-.14,1.51-.7,2.68-2.17,3.12a24.35,24.35,0,0,1-11.63-17.84c-1.85-8.36-3.87-16.65-8.74-23.75-2.07-.53-2.27-3-3.83-4.11q-.61-.51-1.2-1.08C923.75,492.32,919.6,485,912.4,481.48Z" transform="translate(-43.16 -259.22)"/><path class="cls-20" d="M956.35,486.48c-4-4.46-9.78-6.18-14.12-10.15-5.1-13.93-11.88-26.79-21.34-37.95-1.63-1.93-3.12-4-4.67-6,4.21-2.17,6,.43,7.24,4.16l16.89,18.62a11.74,11.74,0,0,1,4.15,5.49c0,1,0,2.05,1.28,2.32,2.75,1.85,4.08,4.75,5.1,7.87a7.31,7.31,0,0,0,2.24,4.1c1.53,1,2.09,2.7,2.52,4.44.67,1.7,1.23,3.45,2,5.08S957.91,486.64,956.35,486.48Z" transform="translate(-43.16 -259.22)"/><path class="cls-21" d="M957,280.28c-4.45-3.34-7.27-11.11-12.45-10.48-4.53.55-8.51,6.39-12.69,9.95-4.82,4.12-9.59,8.3-14.38,12.46-1.37.18-2-.34-1.56-1.87,8-9.77,16.07-19.45,23.89-29.36,2.27-2.87,3.34-1.87,5.08.37,4.47,5.73,9.12,11.3,13.7,16.93C959,279.86,958.32,280.36,957,280.28Z" transform="translate(-43.16 -259.22)"/><path class="cls-22" d="M835.4,405.14c12.47-7.53,25.77-10.4,40-8.16l3.76,1.69c.09.59.19,1.18.29,1.77-18.74-1.37-36.13,2.48-51.63,13.59-1.49,2-3,4-5.8,3.3a2.13,2.13,0,0,1-1-1.46,2.42,2.42,0,0,1,1.58-2.06l.1-.07c1.81-4,4.69-6.29,9-6.36a.87.87,0,0,0,1-.46C833.27,405.78,834,404.9,835.4,405.14Z" transform="translate(-43.16 -259.22)"/><path class="cls-23" d="M744.73,534.19a24.1,24.1,0,0,0,15.84,0c.35,5.76-4.23,8.1-7.21,11.47a15.57,15.57,0,0,1-6.41,4.77,29.49,29.49,0,0,0,.5-3.22c.43-9.36-.81-10.47-10.4-8.88C738.56,534.13,743.1,537.09,744.73,534.19Z" transform="translate(-43.16 -259.22)"/><path class="cls-24" d="M1050.16,326.86,1023,318.49c-.21-1.39.07-2.2,1.6-1.56,7.27.87,14.53,2.27,21.82,2.44C1052.93,319.52,1053.3,321.87,1050.16,326.86Z" transform="translate(-43.16 -259.22)"/><path class="cls-25" d="M1009.51,291.88l-23.93,5.8a1.31,1.31,0,0,1,.1-1.64c5.66-2.9,11.31-5.83,17-8.7C1008.78,284.25,1008.79,284.28,1009.51,291.88Z" transform="translate(-43.16 -259.22)"/><path class="cls-26" d="M806.73,726.55c.51-6.11,3.82-11.29,5-17.17a6.42,6.42,0,0,0,1-.26c.11,6.14-2,11.72-3.75,17.42Z" transform="translate(-43.16 -259.22)"/><path class="cls-27" d="M810.29,577c4.13-1,7.78.25,11.18,2.69.1,2.4-1.66,1.5-2.76,1.76-2-.18-4,.42-5.84-.48l-2.44-.38c-.91-.52-2.22.08-2.87-1.17C807.36,577.23,809.33,577.78,810.29,577Z" transform="translate(-43.16 -259.22)"/><path class="cls-28" d="M957,280.28l1.59-2c3.08,3,6.41,5.85,8.25,10.05C961.64,288.27,960.25,283,957,280.28Z" transform="translate(-43.16 -259.22)"/><path class="cls-29" d="M765.7,681.44l1.78-3.71c1.41,2.47-.39,5.8,2,7.69.29,1.74.57,3.47.86,5.2a7.91,7.91,0,0,1-.85.13C767.58,688,762.34,686.69,765.7,681.44Z" transform="translate(-43.16 -259.22)"/><path class="cls-23" d="M738.21,530.49l.08-2.85,6.42,6.55C742.85,532.36,737.51,537.43,738.21,530.49Z" transform="translate(-43.16 -259.22)"/><path class="cls-30" d="M915.89,290.34l1.56,1.87c-2.35,2.66-4.42,5.74-8.19,6.3A30.28,30.28,0,0,1,915.89,290.34Z" transform="translate(-43.16 -259.22)"/><path class="cls-31" d="M818.79,581l2.68-1.3c2.73-1.13,5,.39,7.46,1.33-.1,2.52-1.55,1.61-2.79,1.26l-3.36.07-3.24-.41C819,581.94,818.73,581.61,818.79,581Z" transform="translate(-43.16 -259.22)"/><path class="cls-32" d="M827.68,563.77l1.33-.44c2,.87,4.84-.05,6.06,2.84l.06,0-6.12.43-1.34-.47A1.6,1.6,0,0,1,827.68,563.77Z" transform="translate(-43.16 -259.22)"/><path class="cls-33" d="M807.7,538.41c.44.44.87.89,1.3,1.33l-1.5,7.92A10.41,10.41,0,0,1,807.7,538.41Z" transform="translate(-43.16 -259.22)"/><path class="cls-34" d="M1024.6,316.93l-1.6,1.56c-2.2-.5-4.43-.92-6.21-2.59C1019.44,315.86,1022.13,315.48,1024.6,316.93Z" transform="translate(-43.16 -259.22)"/><path class="cls-35" d="M985.68,296c0,.55-.06,1.09-.1,1.64-1.5,1.09-3,2-4.89.91A8.26,8.26,0,0,1,985.68,296Z" transform="translate(-43.16 -259.22)"/><path class="cls-36" d="M826.14,582.31l2.79-1.26,3.75,1.23c0,.4.07.8.11,1.21A11,11,0,0,1,826.14,582.31Z" transform="translate(-43.16 -259.22)"/><path class="cls-37" d="M1049.19,592.73a27.9,27.9,0,0,1,2.34-14.21v10.31Z" transform="translate(-43.16 -259.22)"/><path class="cls-38" d="M1031.51,673.54l1.53.1-3.77,4c-.49.56-.93.5-1.34-.1Z" transform="translate(-43.16 -259.22)"/><path class="cls-39" d="M1027.93,677.52l1.34.1c-.84,1.1-1.74,3.37-2.89,2.48S1027.06,678.23,1027.93,677.52Z" transform="translate(-43.16 -259.22)"/><path class="cls-40" d="M1004.38,612.63c-4.17,10-9.15,19.5-17.44,26.48-.72,1.71-1.4,3.48-3.72,2.7L981.83,639c7.46-8.11,14.68-16.44,20-26.37.5-.85,1.06-1.73,2.16-1.42C1004.68,611.39,1004.59,612.05,1004.38,612.63Z" transform="translate(-43.16 -259.22)"/><path class="cls-41" d="M929.77,686.84l-3.72-2.65a77.52,77.52,0,0,1,16.12-12c1.52-1,2.47-.88,2.49,1.31Z" transform="translate(-43.16 -259.22)"/><path class="cls-42" d="M908.55,698.69l8.77-10.55,2.43,1.29-11.17,10.72c-.41-.32-.54-.64-.42-1S908.42,698.69,908.55,698.69Z" transform="translate(-43.16 -259.22)"/><path class="cls-43" d="M983.22,641.81l3.72-2.7,2.47,1.31c-1.74,1.14-3.37,2.61-5.25,3.31S983,642.76,983.22,641.81Z" transform="translate(-43.16 -259.22)"/><path class="cls-44" d="M944.66,673.55l-2.49-1.31c.44-.42.81-1,1.32-1.24,1.3-.58,3-2.44,3.91-.14C948,672.41,945.74,672.77,944.66,673.55Z" transform="translate(-43.16 -259.22)"/><path class="cls-45" d="M1014.22,541.15c-1.84-2.38-1-5-.23-7.83.49,1.3,1,2.6,1.46,3.89C1014.27,538.25,1014.34,539.74,1014.22,541.15Z" transform="translate(-43.16 -259.22)"/><path class="cls-46" d="M794.16,592.77l1,2.53c-11.65,8.84-24.19,13.72-38.65,9.47-4.81-1.42-9.22-3.72-12.36-8.12,7.8,2.53,15.45,6.12,23.93,4.32,7.14-1.52,13.72-3.94,16.56-12.14,1.62,1,3.65.54,5.27,1.6C791.41,591,793.12,591.22,794.16,592.77Z" transform="translate(-43.16 -259.22)"/><path class="cls-47" d="M793.84,580.85a4.31,4.31,0,0,0,4.22,1.09c2.14.8,5.05-.53,4.85,4.65-.08,2.17,5.91,5,9.84,6.26.35,2.46-1.62,1.56-2.62,2a11.08,11.08,0,0,1-8.46-2.25c-1.42-1.31-3.18-1.21-4.89-1.32-.74-.84-2.16-.16-2.74-1.36a10.49,10.49,0,0,0-1.7-7.27C790.79,580.49,793,581.13,793.84,580.85Z" transform="translate(-43.16 -259.22)"/><path class="cls-48" d="M807.84,579.52l-8.74,0c-.46-3.19-3.45-4.36-4.81-6.82,1-.78,2.19-.42,3.3-.55,1.81-1.15,3.12,4.48,5.16.42,1.55-.4,2.64.48,3.68,1.49,1,1.4,1.92,2.93,3.86,2.94Z" transform="translate(-43.16 -259.22)"/><path class="cls-49" d="M737.76,586.3c-1-2.29-2.11-4.59-3.17-6.88l-.21-3.71c-.51-1.42-1.13-2.9,1.29-2.77.34,3.5,3.12,5.79,4,9C738.35,583.09,739.84,585.58,737.76,586.3Z" transform="translate(-43.16 -259.22)"/><path class="cls-50" d="M802.88,506.63c1.26,1-3.84,4.32,1.25,4L800.38,517C799.28,512.93,799.57,509.32,802.88,506.63Z" transform="translate(-43.16 -259.22)"/><path class="cls-51" d="M846.35,474.91a28.6,28.6,0,0,1-3.59-10.21c3.4,2,4.36,4.58,4.9,7.48C847.23,473.09,846.79,474,846.35,474.91Z" transform="translate(-43.16 -259.22)"/><path class="cls-50" d="M807.91,501.37l-5,5.26a2.84,2.84,0,0,0-2.6-2.73c1.86-2.79,4.87-3.13,7.61-4a.91.91,0,0,1,.39,1C808.16,501.2,808,501.37,807.91,501.37Z" transform="translate(-43.16 -259.22)"/><path class="cls-52" d="M827.68,563.77c0,.77,0,1.54,0,2.31l-4.85,0c-2.28-1.68-4.93-.91-7.41-1.24-.88-.34-.9-.75-.08-1.21Z" transform="translate(-43.16 -259.22)"/><path class="cls-53" d="M922.19,383.35c3.4-2.24,7.07-1,10.86-.29l-5.91,1.61C925.76,383.07,923.89,383.59,922.19,383.35Z" transform="translate(-43.16 -259.22)"/><path class="cls-54" d="M848.82,473.59l1.44-1.51c1.92,3.26,1.17,6.73.73,11.54Z" transform="translate(-43.16 -259.22)"/><path class="cls-55" d="M926.14,384.91c1,1.23,2.38,1.13,3.7,1.27l-9.3,2.85C922.18,386.05,924.35,385.8,926.14,384.91Z" transform="translate(-43.16 -259.22)"/><path class="cls-56" d="M867.56,408.47c1.19-1.44,2.37-2.88,3.56-4.31,0,2.95-1.59,4.5-3.52,5.82C867.59,409.48,867.57,409,867.56,408.47Z" transform="translate(-43.16 -259.22)"/><path class="cls-57" d="M894.84,400.52c.87-1.09.91-3.13,2.88-2.93.23,0,.56.68.56,1,0,1.36-1,1.78-2,2C895.72,401.4,895.25,401.36,894.84,400.52Z" transform="translate(-43.16 -259.22)"/><path class="cls-58" d="M894.84,400.52l1.42.14L892.5,406l-1.35-1.42Z" transform="translate(-43.16 -259.22)"/><path class="cls-59" d="M815.33,563.61c0,.4,0,.81.08,1.21-2.15,0-4.38.59-6.29-1.05A12.33,12.33,0,0,1,815.33,563.61Z" transform="translate(-43.16 -259.22)"/><path class="cls-60" d="M1056.36,484.22c-4.95-8.94-8.07-19-14.55-27-7.32-14.12-18.9-23.87-30.49-33.71,9.38,2.3,15.82,9.35,22.69,15.69,2,.3,3.23,1.86,4.4,3-2.08-1-1.63-3.9-3-5.64-14.86-26.58-38.75-35.76-65.85-38.76-1.89-1.34-2.35-2.56.43-3s5.56.53,8.26-.59h6.1c2,.68,4.28-.09,6.21,1.15a3.4,3.4,0,0,0,2.81-1.68c36.67,17.88,55.78,50,64.69,90.43A1.1,1.1,0,0,1,1056.36,484.22Z" transform="translate(-43.16 -259.22)"/><path class="cls-61" d="M872.6,391.93c-3.87-2.18-2.21-3.39.55-5a141.52,141.52,0,0,1,55.69-18.77c33.39-3.71,64.93,2.54,94.06,20.88.13,1.21-.21,1.83-1.46,1.3-16.27-6.61-32.77-12.18-50.06-15.12-33.8-5.77-66-1.26-96.46,15.77A18.11,18.11,0,0,1,872.6,391.93Z" transform="translate(-43.16 -259.22)"/><path class="cls-62" d="M836.9,455.23C834.05,460.3,830,463.65,826,467c1.19,2.64,4.34,2.09,5.55,5.25C815.63,482.47,801.14,495,787,508l-1.48-1.38c4.09-5.75,7.94-11.72,12.36-17.17,3.57-4.41,5.82-8.9,4.9-14.87-.3-1.89-.55-4.14,1.84-5A199.63,199.63,0,0,0,836.9,455.23Z" transform="translate(-43.16 -259.22)"/><path class="cls-63" d="M821.55,417.07l6.27-3,1.32,1.31a43.87,43.87,0,0,1-10,6.57c-2.4.28-1.87-1.4-1.67-2.85l.22.07C819.05,418.62,820,417.12,821.55,417.07Z" transform="translate(-43.16 -259.22)"/><path class="cls-64" d="M1029.29,403.18c-3.32-1-6.4-3-10-2.57a3.14,3.14,0,0,1,1.38-2.66C1024.29,398.23,1027.67,399.06,1029.29,403.18Z" transform="translate(-43.16 -259.22)"/><path class="cls-65" d="M735.67,572.94l-1.29,2.77c-1.72-3.43-1.38-7.05-.87-10.68Z" transform="translate(-43.16 -259.22)"/><path class="cls-66" d="M855,407.05c2.65-1.68,5.47-1.13,8.44-.09l-6.1,1.47C856.74,407.63,855.32,408.4,855,407.05Z" transform="translate(-43.16 -259.22)"/><path class="cls-67" d="M855,407.05l2.34,1.38-7.28,1.4-2.54-1.35C849.79,406.68,852.48,407.39,855,407.05Z" transform="translate(-43.16 -259.22)"/><path class="cls-68" d="M965.86,383.37l-8.45-2c3.87-.74,6.22-1.24,8.39.78.5.23.68.49.53.76S966,383.37,965.86,383.37Z" transform="translate(-43.16 -259.22)"/><path class="cls-69" d="M773.2,493.54l4.93-2.62,1.25,1.25c-1.09,2.13-3,2.64-5,2.75C773.12,495.28,772.8,494.75,773.2,493.54Z" transform="translate(-43.16 -259.22)"/><path class="cls-70" d="M979.65,384.62l-1.4,1.41-6.12-1.51q-.69-.28-.51-.69c.12-.29.24-.44.38-.44C974.6,383.42,977.26,383.06,979.65,384.62Z" transform="translate(-43.16 -259.22)"/><path class="cls-71" d="M782.9,493.17l-1.38-1.27c1.23-1.33,2.34-3,4.54-2A3.88,3.88,0,0,1,782.9,493.17Z" transform="translate(-43.16 -259.22)"/><path class="cls-72" d="M789,486.58c0-2.61,1.83-3,3.08-3.88A3.86,3.86,0,0,1,789,486.58Z" transform="translate(-43.16 -259.22)"/><path class="cls-73" d="M807.91,501.37c0-.5,0-1,0-1.52a6.45,6.45,0,0,1,5.05-2.25C811.64,500,809.48,500.24,807.91,501.37Z" transform="translate(-43.16 -259.22)"/><path class="cls-74" d="M972,383.39c0,.38.09.76.13,1.14l-6.27-1.16a11.71,11.71,0,0,1-.06-1.19C967.92,382.27,970.19,381.49,972,383.39Z" transform="translate(-43.16 -259.22)"/><path class="cls-75" d="M1021.44,390.35l1.46-1.3c1.76.65,3.49,1.35,4,3.57C1024.7,393,1023.07,391.66,1021.44,390.35Z" transform="translate(-43.16 -259.22)"/><path class="cls-76" d="M990.55,395.33c-2.15.08-4.33.38-6.21-1.15l1.17-1.25C987.27,393.54,989.28,393.55,990.55,395.33Z" transform="translate(-43.16 -259.22)"/><path class="cls-77" d="M1004.38,612.63c-.84-1.06-1.68-.34-2.51,0,.23-3.1,2.64-4.51,4.46-7.5A10.16,10.16,0,0,1,1004.38,612.63Z" transform="translate(-43.16 -259.22)"/><path class="cls-78" d="M908.55,698.69l0,1.46c-.92,1.81-1.6,3.88-4.49,4.22C904.75,701.37,906.7,700.07,908.55,698.69Z" transform="translate(-43.16 -259.22)"/><path class="cls-79" d="M890,635.17l2.4-5.32c1.14-.31,1.74,0,1.32,1.37-.1,1.85.15,3.8-1.26,5.3Z" transform="translate(-43.16 -259.22)"/><path class="cls-80" d="M852.55,705.26a10.32,10.32,0,0,1,4.44-4.33,7,7,0,0,1-3,5.87Z" transform="translate(-43.16 -259.22)"/><path class="cls-81" d="M871.29,651l2.51,1.36c-1.74,1.64-3.88,2-6.42,2.63C867.81,652.05,870,652,871.29,651Z" transform="translate(-43.16 -259.22)"/><path class="cls-82" d="M822.8,763.62h2.42c1.23,1.07,1.58,2.49,1.49,4.68C824.61,767.21,823.79,765.32,822.8,763.62Z" transform="translate(-43.16 -259.22)"/><path class="cls-83" d="M978.24,394.17c-1.94,1.64-4.26,1-6.44,1.2-1.42.13-3.09-.07-2.25,2.43H951.64C960.18,393.78,969.17,393.61,978.24,394.17Z" transform="translate(-43.16 -259.22)"/><path class="cls-84" d="M1035.4,436.56c3.14,2.16,3.74,6,5.51,9.21-3.23-1.19-5-4-6.9-6.56Z" transform="translate(-43.16 -259.22)"/><path class="cls-12" d="M1033.37,462.29a2.33,2.33,0,0,1,1.78,2.19c.06.68-.26,1.33-1,.78a5.42,5.42,0,0,1-1.6-1.8C1032.22,462.84,1032.65,462.33,1033.37,462.29Z" transform="translate(-43.16 -259.22)"/><path class="cls-85" d="M999.37,327.78c7.81.1,14.81,4.06,22.37,5.32,1.45.57,3.94-.56,3.74,2.64L1023,337a116.06,116.06,0,0,0-24.88-7.93C997.84,327.92,998.06,327.28,999.37,327.78Z" transform="translate(-43.16 -259.22)"/><path class="cls-86" d="M1025.48,335.74l-3.74-2.64c0-.44,0-.88,0-1.32,4.54.78,8.23,3.6,12.08,6.4Z" transform="translate(-43.16 -259.22)"/><path class="cls-26" d="M805.27,751.76q0,12.54,0,25.08A56.18,56.18,0,0,1,805.27,751.76Z" transform="translate(-43.16 -259.22)"/><path class="cls-26" d="M801.46,755.65c.42-2.37.84-4.75,1.27-7.12,0,3.3.92,6.69-.9,9.81A1.91,1.91,0,0,1,801.46,755.65Z" transform="translate(-43.16 -259.22)"/><path class="cls-87" d="M806.74,784.78c.91,1.23,1.93,3,.49,3.88s-1.62-1.21-1.94-2.38Z" transform="translate(-43.16 -259.22)"/><path class="cls-88" d="M821.47,826l1.58-.09c.78.8,2.62,1.81,1.28,2.74C823.26,829.35,822.21,827.21,821.47,826Z" transform="translate(-43.16 -259.22)"/><path class="cls-89" d="M817.45,419.06c.56.95,1.12,1.9,1.67,2.85-3.14,2.35-6.19,4.91-10.27,5.09C810.56,422.94,815.17,422.43,817.45,419.06Z" transform="translate(-43.16 -259.22)"/><path class="cls-90" d="M773.2,493.54l1.17,1.38c-1.12.93-2.73,2-3.53.58C770.25,494.43,772.23,494,773.2,493.54Z" transform="translate(-43.16 -259.22)"/><path class="cls-11" d="M1033.81,369.85l-1.93,4.32c-1.77,5.49-4.41,6.18-8.71,2.4-2.54-2.24-5.82-3.52-8.77-5.23-2.18-1.22-4.26-2.74-6.91-2.48l-.12,0a38.79,38.79,0,0,0-4.7-2.83,10.71,10.71,0,0,0-5.24-1.06h.12c-2.18-1.56-5-1.8-6.9-3.95q-62.71-20.38-122.18,9.09c-5.69,2.83-8.71,2.06-11.06-3.72,18-12.62,38-19.83,59.05-24,1.61-.32,3.18-.81,4.76-1.22,23.4-2.55,46.57-1.82,69.37,5.06a167.36,167.36,0,0,1,39.82,17.88C1032.42,365.33,1035.3,366.18,1033.81,369.85Z" transform="translate(-43.16 -259.22)"/><path class="cls-91" d="M990.65,361c2.7.51,5.72.41,6.9,3.95-2.47.29-4.62-.92-6.88-1.61C990.66,362.57,990.66,361.79,990.65,361Z" transform="translate(-43.16 -259.22)"/><path class="cls-92" d="M1007.49,368.86c3.14-1.81,5.11.05,6.91,2.48C1011.67,371.86,1009.63,370.2,1007.49,368.86Z" transform="translate(-43.16 -259.22)"/><path class="cls-93" d="M1003.1,365.16c1.9.59,3.86,1.11,4.27,3.68a11,11,0,0,1-6-2.32C1001.55,365.47,1002.48,365.53,1003.1,365.16Z" transform="translate(-43.16 -259.22)"/><path class="cls-94" d="M1003.1,365.16l-1.68,1.36c-1.44-.22-2.94-.23-4-1.57C999.4,362.65,1001.23,364.55,1003.1,365.16Z" transform="translate(-43.16 -259.22)"/><path class="cls-3" d="M916.05,339.73c-17,2.46-32.88,9-48.61,16-4.16,1.84-8.27,3.82-12.4,5.74l-4-7.06c.74-11.34,6.31-18.69,16.17-22.79,14-5.83,28.73-8.34,43.53-10.14,26.66-3.24,52.87-.94,78.3,8.71,4.68,1.78,9.25,3.87,13.87,5.82.3,1.12.21,1.81-1.11,1.16-11.56-3.19-22.93-7-34.89-8.57-8.06-1-16-.49-24.12-.17,11,2.45,22.13,4.42,33,7.47,10.67,3,21.67,5.36,31.15,12-13.13-3.88-26.1-8.39-39.71-10.17C950,335.46,933,335.34,916.05,339.73Z" transform="translate(-43.16 -259.22)"/><path class="cls-95" d="M999.37,327.78l-1.22,1.32-10.65-2.9C991.7,325,995.58,326.05,999.37,327.78Z" transform="translate(-43.16 -259.22)"/><path class="cls-96" d="M1014.81,341.91c-2.86.34-4.24-.88-6.89-2.66C1011.27,339.06,1012.8,340.1,1014.81,341.91Z" transform="translate(-43.16 -259.22)"/><path class="cls-97" d="M1001.79,337.15l1.11-1.16c1.24.53,2.85.5,3.3,2.43C1004.41,339.07,1003,338.35,1001.79,337.15Z" transform="translate(-43.16 -259.22)"/><path class="cls-98" d="M856.26,721.13l3.56-6.69,1,.37q-2.19,6.56-4.37,13.13c-.42-.89-.84-1.78-1.27-2.67C854.34,723.53,855.48,722.39,856.26,721.13Z" transform="translate(-43.16 -259.22)"/><path class="cls-99" d="M871.32,682.86a12.21,12.21,0,0,1,6.44-3.62c-.59,2.78-2.36,3.78-4,4.86Z" transform="translate(-43.16 -259.22)"/><path class="cls-100" d="M865.07,684.15c.43.48.87,1,1.31,1.42-1.52,2.38-3.82,3.36-6.3,4a.93.93,0,0,1-.41-1c.12-.35.24-.53.37-.53Z" transform="translate(-43.16 -259.22)"/><path class="cls-101" d="M856.26,721.13c-.36,1.38-.73,2.76-1.1,4.14-.28.6-.62,2-1.16.36a4,4,0,0,1,1.21-4.42C855.56,721.2,855.91,721.17,856.26,721.13Z" transform="translate(-43.16 -259.22)"/><path class="cls-102" d="M901.21,596.69l1.16,0c-.13,2.08.51,4.24-.63,6.37C900.66,600.94,901.27,598.78,901.21,596.69Z" transform="translate(-43.16 -259.22)"/><path class="cls-103" d="M860,688.07c0,.52,0,1,0,1.54-.7.85-1.57,2.85-2.46,1.45C856.86,689.87,859,688.91,860,688.07Z" transform="translate(-43.16 -259.22)"/><path class="cls-104" d="M893.75,631.22l-1.32-1.37c.57-1,.94-3.05,2-2.35C895.64,628.36,894.66,630.07,893.75,631.22Z" transform="translate(-43.16 -259.22)"/><path class="cls-105" d="M895.06,568.93c0-6.7-.11-13.4-.14-20.09,0-1-.42-2.49,1-2.41,1,.06,1.38,1.42,1.47,2.55-2.37,3.94-.72,8.33-1.19,12.49C896,564,896.57,566.64,895.06,568.93Z" transform="translate(-43.16 -259.22)"/><path class="cls-106" d="M924.59,550.52c-2,2.85-.65,6.17-1.17,9.24-2-3.71-.84-7.73-1.15-11.66C924.31,547.75,924.05,549.55,924.59,550.52Z" transform="translate(-43.16 -259.22)"/><path class="cls-107" d="M924.8,527.73l1.25-1.23a5,5,0,0,1,1,4.71C925.09,530.89,925.54,528.87,924.8,527.73Z" transform="translate(-43.16 -259.22)"/><path class="cls-108" d="M922.28,509.24a4.56,4.56,0,0,1,2.46,4l-1.26,0c-1.22-1-1.25-2.5-1.25-4Z" transform="translate(-43.16 -259.22)"/><path class="cls-63" d="M1056.36,484.22l1.69-.14c1.26,1.56,1.1,3.48,1.21,5.34-.46.52-.91.5-1.34-.06Z" transform="translate(-43.16 -259.22)"/><path class="cls-109" d="M1060.42,493.34a5.06,5.06,0,0,1,.9,4.76c-1.94-.41-1.46-2.39-2.13-3.61A2,2,0,0,1,1060.42,493.34Z" transform="translate(-43.16 -259.22)"/><path class="cls-110" d="M1060.42,493.34l-1.23,1.15q-.63-2.57-1.27-5.13l1.34.06C1060.38,490.48,1060.31,491.94,1060.42,493.34Z" transform="translate(-43.16 -259.22)"/><path class="cls-111" d="M931,497.36c3.57-.13,2.86,3.21,3.76,5.24L933.46,504C932.29,501.91,930.58,500.09,931,497.36Z" transform="translate(-43.16 -259.22)"/><path class="cls-112" d="M931,497.36c.83,2.21,1.67,4.41,2.5,6.61-3-1.05-3-4.07-3.77-6.56Z" transform="translate(-43.16 -259.22)"/><path class="cls-113" d="M922.23,509.28c-1.26-1-2.84-1.78-1.81-4,2.31.51,1.6,2.52,1.86,4Z" transform="translate(-43.16 -259.22)"/><path class="cls-114" d="M759.16,620.31,765,620c4.7-.63,4.57,3.68,5.32,6.46,1.44,5.32.7,10.86.6,16.32a10.71,10.71,0,0,1-2.2,4.7c-5.73,6.77-9.23,14.34-8.24,23.73a2.7,2.7,0,0,1-2.57,1.45c-7.12-5.22-9.22-11.31-6.78-19.86a32.55,32.55,0,0,1,2.82-7.33,30,30,0,0,0,3.47-22.17,2.5,2.5,0,0,1,.74-2.37A1.67,1.67,0,0,0,759.16,620.31Z" transform="translate(-43.16 -259.22)"/><path class="cls-115" d="M759.55,670.78c-3.13-11.8,4.64-19.36,9.6-28,2.15,1.4,1.68,3.54,1.42,5.63-3.15,5.32-8.15,9.53-8.65,16.42,0,.2.05.53.18.6.91.5.93-.4,1.19-.92,1.1-.39,1.65-.17,1.18,1.19a52.49,52.49,0,0,0,1.23,15.76c-.43,3.89,3.41,5.8,3.8,9.31a42.2,42.2,0,0,1-18.39-15.51c1.38-2.42,3.37.56,5-1.77-9.6-5.66-11.84-14.84-10-26.42l2.3,8c4.47-10.87,11-20.54,7.87-32.94-.21-.82,1-1.17,1.89-1.17,1.91,8.58,1.69,16.63-2.85,24.62-5.25,9.28-3.77,18.46,2.73,26.72.5.23,1.14.83,1.49.52C760.15,672.29,759.73,671.47,759.55,670.78Z" transform="translate(-43.16 -259.22)"/><path class="cls-116" d="M747,616.5l3.63,1.67c-4.25,5.48-5.8,12-6.38,19-2.49-.55.93-6-3.51-4.7-2.68,1.31-4.22.21-4.94-2.63,2.66.77-.53-8.24,4.7-3.2a15.91,15.91,0,0,1,.83-3.12C742.65,620.72,743.17,617.09,747,616.5Z" transform="translate(-43.16 -259.22)"/><path class="cls-115" d="M735.77,629.85c.85,2.57,4.25-.3,4.94,2.63-1.26,4.31-4.24,8-4.13,12.88C733.46,640.25,734.4,635.06,735.77,629.85Z" transform="translate(-43.16 -259.22)"/><path class="cls-117" d="M770.57,648.39q-.72-2.8-1.42-5.63a30.37,30.37,0,0,0-.15-17.49c-.67-2.37-1.34-4.64-4-5.26l4.35-.55c4,7.43,1.48,16,3.49,23.78C773.33,645.09,772,647,770.57,648.39Z" transform="translate(-43.16 -259.22)"/><path class="cls-118" d="M764.47,665.68l-1.18-1.19c.38-1.1.76-3.22,1.75-2.6C766.35,662.71,765.37,664.49,764.47,665.68Z" transform="translate(-43.16 -259.22)"/><path class="cls-119" d="M821.55,417.07c-1,1.26-2.14,2.32-3.88,2.06.52-2.17,2.24-2.91,3.89-3.73C821.56,416,821.56,416.51,821.55,417.07Z" transform="translate(-43.16 -259.22)"/><path class="cls-120" d="M810.39,595.28c-.14-.33-.28-.66-.41-1l2.77-1.44,3.83,1.18,3.68,2.94c.41.18.56.38.44.61s-.25.34-.38.34Z" transform="translate(-43.16 -259.22)"/><path class="cls-121" d="M820.32,597.92a2.53,2.53,0,0,1-.06-.95l3,1.53c-.21.27-.4.74-.63.76A1.87,1.87,0,0,1,820.32,597.92Z" transform="translate(-43.16 -259.22)"/><path class="cls-122" d="M759.55,670.78a9.52,9.52,0,0,1,2.52,6.17c-2.15-1.07-3-3-4-4.67Z" transform="translate(-43.16 -259.22)"/><path class="cls-123" d="M43.16,407.74H98.94V668.4H43.16ZM69.25,524.62h57.8a25.44,25.44,0,0,0,11.69-2.51,17.74,17.74,0,0,0,7.65-7.35,23.16,23.16,0,0,0,2.7-11.47V472.64a26,26,0,0,0-2.59-12A17.33,17.33,0,0,0,139,453a25.28,25.28,0,0,0-11.92-2.6H69.25V407.74h59.37q24.3,0,41.61,6.81t26.31,20q9,13.18,9,31.64V510.1q0,18.12-9.11,30.93T170,560.57q-17.31,6.72-41.38,6.72H69.25Z" transform="translate(-43.16 -259.22)"/><path class="cls-123" d="M291.22,668.4H235.45V407.74h55.77Z" transform="translate(-43.16 -259.22)"/><path class="cls-123" d="M363,663.29q-17.54-7.8-26.87-22.68t-9.34-35.85V471.38q0-21,9.34-35.85T363,412.85q17.55-7.8,42.28-7.8t42.39,7.8q17.65,7.8,26.88,22.77t9.22,35.94v21H427.28v-21a24.88,24.88,0,0,0-2.47-11.47,16.81,16.81,0,0,0-7.54-7.44,26,26,0,0,0-12-2.6,25.54,25.54,0,0,0-11.69,2.51,17.12,17.12,0,0,0-7.54,7.35,24,24,0,0,0-2.58,11.47V604.76A23.5,23.5,0,0,0,386,616.14a17.24,17.24,0,0,0,7.54,7.26,25.41,25.41,0,0,0,11.69,2.51,26.57,26.57,0,0,0,12.15-2.51,16.6,16.6,0,0,0,7.42-7.26,24.75,24.75,0,0,0,2.47-11.56v-21h56.45v21q0,21-9.22,35.94t-26.88,22.77q-17.65,7.8-42.39,7.8T363,663.29Z" transform="translate(-43.16 -259.22)"/><path class="cls-123" d="M496.77,407.74H660.5v42.67H496.77Zm54,21.87h55.77V668.4H550.75Z" transform="translate(-43.16 -259.22)"/><path class="cls-124" d="M1219.27,663.56a50.61,50.61,0,0,1-21.36-21.65q-7.41-14.17-7.4-34.07V594.11l42-.35v13.73q0,9.69,5.27,15.23t14.64,5.54q9.19,0,14.21-5.45t5-15V585.49a20,20,0,0,0-3.83-12.24,35.54,35.54,0,0,0-9.87-9q-6-3.78-16.42-9.06c-.46-.24-.88-.47-1.28-.71s-.82-.46-1.28-.7l-2.21-1.06a142.37,142.37,0,0,1-23.49-15A61.88,61.88,0,0,1,1197.14,517q-6.47-12.86-6.46-31.69v-13.2q0-19.55,7.23-33.54a49.51,49.51,0,0,1,21-21.39q13.78-7.4,33.19-7.39,18.89,0,32.51,7.39a49,49,0,0,1,20.76,21.57q7.15,14.17,7.15,34.06v14.44l-42,.52V473.17q0-9.85-4.85-15.4t-13.53-5.54q-9.19,0-14.21,5t-5,13.82v17.08a21.35,21.35,0,0,0,3.66,12.5,32.87,32.87,0,0,0,9.19,8.89q5.52,3.6,15.4,8.71c1.25.59,2.52,1.23,3.83,1.94s2.64,1.4,4,2.11a5.31,5.31,0,0,1,.6.35,4,4,0,0,0,.59.35A187.41,187.41,0,0,1,1293,537.34q8.68,6.6,14.81,18.57t6.12,30.63v21.3q0,19.9-7.23,34.07a49.85,49.85,0,0,1-21,21.65q-13.79,7.47-33,7.48Q1233.22,671,1219.27,663.56Z" transform="translate(-43.16 -259.22)"/><path class="cls-124" d="M1340.8,412.44H1383v256H1340.8Zm20.08,109.32h82.89v41h-82.89Zm55.49-109.32h42.21v256h-42.21Z" transform="translate(-43.16 -259.22)"/><path class="cls-124" d="M1488.87,412.44h42.21v256h-42.21Zm18.72,0h91.23V455h-91.23Zm0,107.56h82.72v42.42h-82.72Zm0,105.8h91.23v42.6h-91.23Z" transform="translate(-43.16 -259.22)"/><path class="cls-124" d="M1620.61,412.26H1662V668.4h-41.36Zm18.89,106h44.6a20.5,20.5,0,0,0,9.44-2,13.7,13.7,0,0,0,6-5.8,18.89,18.89,0,0,0,2-9.07V472.82a22.84,22.84,0,0,0-2-10,14.23,14.23,0,0,0-6-6.43,19.34,19.34,0,0,0-9.44-2.2h-44.6v-41.9h42q20.09,0,34.3,6.78a48.2,48.2,0,0,1,21.7,19.89q7.49,13.13,7.49,31.43v29.92q0,18.84-7.49,32.31a49,49,0,0,1-21.79,20.5q-14.3,7-34.21,7h-42Zm34.38,34,38.64-8.09L1752,668.4h-45.28Z" transform="translate(-43.16 -259.22)"/><path class="cls-124" d="M1796.6,663.56a50.67,50.67,0,0,1-21.36-21.65q-7.41-14.17-7.4-34.07V594.11l42-.35v13.73q0,9.69,5.27,15.23t14.64,5.54q9.2,0,14.21-5.45t5-15V585.49a20,20,0,0,0-3.83-12.24,35.54,35.54,0,0,0-9.87-9q-6-3.78-16.42-9.06c-.46-.24-.88-.47-1.28-.71s-.82-.46-1.28-.7l-2.21-1.06a142.37,142.37,0,0,1-23.49-15A61.88,61.88,0,0,1,1774.47,517q-6.46-12.86-6.46-31.69v-13.2q0-19.55,7.23-33.54a49.51,49.51,0,0,1,21-21.39q13.79-7.4,33.19-7.39,18.9,0,32.51,7.39a49,49,0,0,1,20.76,21.57q7.15,14.17,7.15,34.06v14.44l-42,.52V473.17q0-9.85-4.85-15.4t-13.53-5.54q-9.2,0-14.21,5t-5,13.82v17.08a21.42,21.42,0,0,0,3.66,12.5,33,33,0,0,0,9.19,8.89q5.52,3.6,15.4,8.71c1.25.59,2.53,1.23,3.83,1.94s2.64,1.4,4,2.11a5.31,5.31,0,0,1,.6.35,4,4,0,0,0,.59.35,187.41,187.41,0,0,1,22.81,14.35q8.68,6.6,14.81,18.57t6.12,30.63v21.3q0,19.9-7.23,34.07a49.85,49.85,0,0,1-21,21.65Q1849.2,671,1830,671,1810.57,671,1796.6,663.56Z" transform="translate(-43.16 -259.22)"/></g></svg>