<svg id="Layer_1" data-name="Layer 1" xmlns="http://www.w3.org/2000/svg" viewBox="0 0 715.56 640"><defs><style>.cls-1{fill:#cc6a27;}.cls-1,.cls-2,.cls-30{stroke:#606261;}.cls-1,.cls-13,.cls-2,.cls-21,.cls-22,.cls-23,.cls-25,.cls-26,.cls-28,.cls-30,.cls-31,.cls-5,.cls-6,.cls-7{stroke-miterlimit:10;}.cls-1,.cls-13,.cls-6{stroke-width:3px;}.cls-2,.cls-4{fill:#fdcdac;}.cls-3{fill:#606261;}.cls-17,.cls-5{fill:#98a0b7;}.cls-22,.cls-5,.cls-6,.cls-7{stroke:#000;}.cls-22,.cls-5{stroke-width:2px;}.cls-6{fill:#a9b1cb;}.cls-20,.cls-7{fill:#fdccab;}.cls-8{fill:#050505;}.cls-9{fill:#d98173;}.cls-10{fill:#ff9f9b;}.cls-11{fill:#1c1616;}.cls-12{fill:#060607;}.cls-13,.cls-14{fill:#fef699;}.cls-13{stroke:#050505;}.cls-15,.cls-16{fill:#deb772;}.cls-15{opacity:0.66;}.cls-16{opacity:0.6;}.cls-18,.cls-19,.cls-29,.cls-31{fill:#fff;}.cls-18{opacity:0.7;}.cls-19{opacity:0.39;}.cls-21,.cls-28{fill:#604634;}.cls-21{stroke:#090707;}.cls-22{fill:#606060;}.cls-23{fill:#203647;stroke:#fff;}.cls-24{font-size:38.16px;fill:#e1e6ea;font-family:MyriadPro-Regular, Myriad Pro;}.cls-25{fill:#443b38;stroke:#606161;}.cls-26{fill:#e6e7e8;stroke:#231f20;stroke-linecap:round;}.cls-27{fill:#231f20;}.cls-28{stroke:#070504;}.cls-30{fill:none;}.cls-31{stroke:#0c0c0b;}</style></defs><text x="-602.64" y="-225.72"/><path class="cls-1" d="M701.76,548.44l25,4.06q-1.07-12.69-2.12-25.38l-15.36,2-70.58,17.57-34.25,19,1.8,6.48,14-3.46c11.69-2.89,20.08-5.83,22.09-6.48C651.25,559.39,668,555,701.76,548.44Z" transform="translate(-602.64 -225.72)"/><path class="cls-1" d="M708.07,566.58l18.65-14.08,5.64,28.3-15.45,1.35-70.59,5.16-40.71-4.4-1.08-4.45L629.65,577l17.13-.43Z" transform="translate(-602.64 -225.72)"/><path class="cls-1" d="M779.07,543.75l-33.52,8.46a4.67,4.67,0,0,1-5.68-3.17l-1-3.65a4.45,4.45,0,0,1,3.32-5.45l33.52-8.46a4.67,4.67,0,0,1,5.68,3.17l1,3.65A4.45,4.45,0,0,1,779.07,543.75Z" transform="translate(-602.64 -225.72)"/><polygon class="cls-1" points="147.38 347.09 128.77 350.38 118.35 296.28 136.97 292.99 147.38 347.09"/><path class="cls-2" d="M729.74,569.45l-2-.47a1.37,1.37,0,0,0-1.28.4h0a.91.91,0,0,0,0,1.32l1.13,1,5,6.94,4.85,2.52,3.65,1.44,3.68.27" transform="translate(-602.64 -225.72)"/><path class="cls-2" d="M742.84,584.83l-8.6-.41-3.6-3.23-2.72-3.72a1.62,1.62,0,0,1,.87-2.36l.8-.33" transform="translate(-602.64 -225.72)"/><path class="cls-2" d="M732.44,582.81l.47,1.4.2.61a2.24,2.24,0,0,0,.63,1l1.85,1.66a4.19,4.19,0,0,0,3.19,1l8-.72,4.51-.88a15.92,15.92,0,0,0,10.25-7l.54-.85,31.06-11.66-1.46-14.06-28.42,14.5a1.88,1.88,0,0,1-2.62-.7l-.47-.94a8.72,8.72,0,0,0-6.5-4.71l-.44-.07a14.85,14.85,0,0,0-8.36,1.1,2.42,2.42,0,0,0-1,3.92l.36.32,3.38-.7a1.68,1.68,0,0,1,2,1.06l.4,1.19-1.9,1.95-5,1.63-5.83-.37-5.11-5.66a1.11,1.11,0,0,0-1.39-.16l-.26.15a2.19,2.19,0,0,0-1.15,2.22l.28,1.48,2.65,4.19,2.4,2.15,1.89,1.7a6.45,6.45,0,0,0,5.65,1.37l1.6-.34,2.75.64" transform="translate(-602.64 -225.72)"/><path class="cls-3" d="M729.51,575.18c.85,1.16,1.66,2.39,2.61,3.47a10.39,10.39,0,0,0,3.55,2.37,33.37,33.37,0,0,0,4.28,1.9,16.34,16.34,0,0,0,4.55.74c.49,0,.49-.73,0-.75a15.65,15.65,0,0,1-4.35-.71,30.68,30.68,0,0,1-4.1-1.83,10.15,10.15,0,0,1-3.32-2.15c-1-1.06-1.74-2.28-2.58-3.42-.28-.38-.93,0-.64.38Z" transform="translate(-602.64 -225.72)"/><path class="cls-3" d="M732.22,583a4.36,4.36,0,0,1,1,1,2.79,2.79,0,0,0,3,1.42c2,.06,4.08.45,6.13.39a.38.38,0,0,0,0-.75c-2,.06-3.86-.31-5.8-.38-.77,0-1.73.06-2.31-.55-.28-.29-.46-.66-.72-1a5.09,5.09,0,0,0-.92-.81c-.39-.29-.77.36-.38.64Z" transform="translate(-602.64 -225.72)"/><path class="cls-4" d="M743.2,578.82a4.86,4.86,0,0,0-3.63-.24,1.52,1.52,0,0,0-1.08,1.65,1.5,1.5,0,0,0,1.47,1.3,16.42,16.42,0,0,0,2.88-.35,1.51,1.51,0,0,0,0-2.89,2.66,2.66,0,0,0-1.8.22,1.49,1.49,0,0,0-.72,1.5,1.46,1.46,0,0,0,1.08,1.24,3.25,3.25,0,0,0,1.61-.1c.34-.12.65-.28,1-.37l.11,0c.12,0,.06,0-.2,0H744q.18,0-.21,0c.31.07-.3-.16,0,0s-.21-.2,0,0l1.07,1a1.53,1.53,0,0,0,1.82.24,1.57,1.57,0,0,0,.69-1.7,5,5,0,0,0-.35-1.08,1.72,1.72,0,0,0-1.68-.89,10.56,10.56,0,0,0-2.15.46,1.5,1.5,0,1,0,.79,2.89,9.41,9.41,0,0,1,.91-.25l.42-.09.22,0h0a.76.76,0,0,1-.59-.14l-.54-.54c.09.13.07.08,0-.14l0,.21.1.4,2.51-1.46c-.86-.79-1.72-1.8-3-1.79a3.55,3.55,0,0,0-1.35.31,5.14,5.14,0,0,1-.55.2,2.1,2.1,0,0,1-.24.06l.17,0c-.16,0-.11,0,.16,0l.36,2.74a.68.68,0,0,1-.39.11q.26,0-.12,0v-2.89l-.56.11a1.86,1.86,0,0,0-.34.05c0-.06.31,0,0,0s-.78.07-1.18.08l.4,3a3.87,3.87,0,0,1,.56-.15c.19-.05-.32,0,0,0h.56c.19,0-.32-.07-.05,0l.29.08c.28.08-.28-.14,0,0a1.62,1.62,0,0,0,1.16.16,1.59,1.59,0,0,0,.9-.69,1.53,1.53,0,0,0-.54-2.06Z" transform="translate(-602.64 -225.72)"/><path class="cls-2" d="M719.5,538.6l-1.2,1.88a1.69,1.69,0,0,1-1.4.68h0c-.69,0-1.24-.41-1.25-.93l0-1.59-2.3-8.84,1.6-5.5,1.62-3.81,2.73-3" transform="translate(-602.64 -225.72)"/><path class="cls-2" d="M716,517.54l-6.56,6.82.06,5.06,1.22,4.75a2.14,2.14,0,0,0,2.86,1.05l1-.37" transform="translate(-602.64 -225.72)"/><path class="cls-2" d="M709.43,526.89l-.92-1.37-.39-.59a2.1,2.1,0,0,1-.38-1.19l0-2.6a4,4,0,0,1,1.66-3.14l7.09-5.53,4.46-2.78A21.51,21.51,0,0,1,735.65,507l1.21.2,35.77-15.11,11.73,11.27-36.25,11.06c-1.29.4-2,1.5-1.47,2.5l.49,1a8,8,0,0,1-.93,8.34l-.29.39a16.68,16.68,0,0,1-7.76,5.53c-2,.75-4.35-.4-4.36-2.1v-.51l3.38-2.05a1.59,1.59,0,0,0,.66-2.3l-.78-1.17-3.32,0-5.5,2.58-4.37,4.68,1.08,8a1.15,1.15,0,0,1-1,1.17l-.35.09a3,3,0,0,1-3-.74l-1.14-1.27-1.71-5.05,0-3.37,0-2.66a6.2,6.2,0,0,1,3.3-5.27l1.61-1,1.63-2.54" transform="translate(-602.64 -225.72)"/><path class="cls-3" d="M714.85,534.42a31.24,31.24,0,0,1-1.1-4.78,11.31,11.31,0,0,1,1-4.44,23.82,23.82,0,0,1,1.53-4,15.34,15.34,0,0,1,2.74-3.58.38.38,0,0,0-.53-.53,16.22,16.22,0,0,0-2.79,3.61A23.35,23.35,0,0,0,714,525a11.86,11.86,0,0,0-1,4.63,31.73,31.73,0,0,0,1.13,5,.37.37,0,0,0,.72-.2Z" transform="translate(-602.64 -225.72)"/><path class="cls-3" d="M709.93,527a4.5,4.5,0,0,0,0-1.37,3.56,3.56,0,0,1-.24-1.54c.22-.84,1.15-1.48,1.72-2.09,1.33-1.42,2.48-3,3.94-4.27.36-.32-.17-.85-.53-.53-1.58,1.4-2.81,3.13-4.29,4.63a5.28,5.28,0,0,0-1.57,2.06,2.52,2.52,0,0,0,.1,1.36,4.32,4.32,0,0,1,.17,1.75c-.06.48.69.48.75,0Z" transform="translate(-602.64 -225.72)"/><path class="cls-4" d="M718.52,520.85c0,.07,0,.13-.07.19l.15-.36a2.62,2.62,0,0,1-.27.49,1,1,0,0,0-.08.11s.24-.28.1-.13l-.23.24c0,.05-.31.26-.1.1s-.07,0-.13.09a5.7,5.7,0,0,1-.6.32l1.82,2.35c.17-.15.34-.3.52-.44s.43-.28,0,0a2.27,2.27,0,0,0,.25-.18c.37-.27.75-.53,1.15-.77L719,520.77c-.08.13,0,.08.11-.14-.09.08-.07.07,0,0s-.06,0-.12,0l.36-.15-.08,0,1.69,2.2s-.27.3-.13.19l.07-.08c.13-.12-.16.13-.17.14a.83.83,0,0,0,.12-.08,3.81,3.81,0,0,1,.45-.23l-.36.16a5.52,5.52,0,0,0,2.16-1.19,2.78,2.78,0,0,0,.67-1.9c0-.5,0-1,0-1.49L721,519c.17.22.36.44.51.68l-.15-.36a.65.65,0,0,1,0,.13v-.79l0,.06.15-.36c.43-.38.54-.49.32-.33l-.07.05-.22.15-.48.3c-.33.19-.66.36-1,.52a1.51,1.51,0,0,0-.54,2.06,1.47,1.47,0,0,0,.9.68,1.65,1.65,0,0,0,1.15-.15,10.5,10.5,0,0,0,1.78-1,2.36,2.36,0,0,0,.73-.71,1.7,1.7,0,0,0,.18-1.32,3.56,3.56,0,0,0-.69-1.11,1.86,1.86,0,0,0-.72-.61,1.38,1.38,0,0,0-1-.07,1.53,1.53,0,0,0-1.1,1.44,13.52,13.52,0,0,1,0,1.8l0-.4a1.57,1.57,0,0,1-.08.31l.15-.36c0,.06-.18.27,0,0s.06-.08,0,0-.19.15,0,0,.07-.05,0,0a3.78,3.78,0,0,1-.53.27l.36-.15c-.41.17-.84.32-1.24.52a3.2,3.2,0,0,0-1.17,1,1.44,1.44,0,0,0-.2.76,1.52,1.52,0,0,0,1.9,1.44,2.65,2.65,0,0,0,1.48-1.13,1.51,1.51,0,0,0-.24-1.81,1.54,1.54,0,0,0-1.82-.24,17,17,0,0,0-2.56,1.9,1.5,1.5,0,0,0-.12,2,1.39,1.39,0,0,0,.78.54,1.76,1.76,0,0,0,1.15-.15,4.87,4.87,0,0,0,2.61-2.84,1.5,1.5,0,1,0-2.89-.8Z" transform="translate(-602.64 -225.72)"/><path class="cls-5" d="M852.85,484.36a310.79,310.79,0,0,1-40.61,15.35,315.13,315.13,0,0,1-48,10.41V494.77c11.3-5,23.31-10,36-14.79,13.66-5.19,26.85-9.72,39.46-13.7l36-4.38c-11.17,7.56-14.54,13.44-15.45,17.53-.28,1.3-1,5.29-3.43,6C855.44,485.88,853.91,485.09,852.85,484.36Z" transform="translate(-602.64 -225.72)"/><path class="cls-6" d="M917.43,455.07a11.54,11.54,0,0,1,6.66,10.36c0,24.05-.47,55.76-2.67,92.91-5.54,93.41-15.07,109-27.55,117.26-6.44,4.23-30.11,17.31-82.65-4.57a477,477,0,0,1,6.29-62.37A488.49,488.49,0,0,1,864.73,467a37.67,37.67,0,0,1,16.42-14.21C895.23,446.6,909.4,451.2,917.43,455.07Z" transform="translate(-602.64 -225.72)"/><ellipse class="cls-7" cx="884.42" cy="462.09" rx="13.86" ry="10.17" transform="translate(-512.58 840.29) rotate(-64.83)"/><path class="cls-7" d="M772,313.67s.53,78.68-12.19,114.72c0,0,4.24,47.72,93.24,40.1,0,0,69.41-8.12,86.36-29.44,0,0,8,13.2,40.26,8.63,0,0,15.24-6.54,24.25-19.28s-.56-30.25-16.65-30c-8.38.13-18.81,3.86-30.91,15.27l15.9-95.94a118.81,118.81,0,0,0-21.46-22.08c-23-18.18-47.53-23.86-60.93-25.89a137.74,137.74,0,0,0-67.81,8.63A131.66,131.66,0,0,0,772,313.67Z" transform="translate(-602.64 -225.72)"/><path class="cls-8" d="M955.46,364.59a20.81,20.81,0,0,0,16.22-10.19,1.5,1.5,0,0,0-2.59-1.52,17.67,17.67,0,0,1-13.63,8.71,1.54,1.54,0,0,0-1.5,1.5,1.5,1.5,0,0,0,1.5,1.5Z" transform="translate(-602.64 -225.72)"/><path d="M790,361.26a52.54,52.54,0,0,0-1.68,15c.23,6.42,10.23,6.45,10,0a42.62,42.62,0,0,1,1.32-12.37c1.62-6.23-8-8.89-9.64-2.66Z" transform="translate(-602.64 -225.72)"/><path d="M878.29,373.65c-1.33,4.34-1.68,9.07-2.37,13.54-.41,2.67.68,5.38,3.49,6.15,2.37.65,5.74-.81,6.15-3.49.7-4.47,1.05-9.21,2.38-13.54,1.89-6.17-7.76-8.8-9.65-2.66Z" transform="translate(-602.64 -225.72)"/><path d="M817.51,386.77a43.09,43.09,0,0,1-1.4,6.35c-.55,1.8-1.05,3.67-2.57,4.9s-3.35,2.17-4.94,3.37a43.46,43.46,0,0,0-4.6,4,16.31,16.31,0,0,0-3.36,4.27,7.5,7.5,0,0,0-.08,5.59c.88,3,2.12,6.33,5,7.94,4,2.27,8.46-.12,11.84-2.47,1.57-1.1.07-3.7-1.52-2.59-3.09,2.15-7.79,4.9-10.55.8a16.9,16.9,0,0,1-2.1-5.32c-.56-2.26.66-3.73,2.15-5.31a38.39,38.39,0,0,1,4.92-4.44c1.79-1.34,3.85-2.35,5.54-3.83a11,11,0,0,0,2.89-5.21,41.47,41.47,0,0,0,1.68-7.23,1.56,1.56,0,0,0-1-1.85,1.51,1.51,0,0,0-1.84,1Z" transform="translate(-602.64 -225.72)"/><path d="M825.58,444a80.88,80.88,0,0,0,13.66-3.28c4.34-1.58,8-4.07,11.75-6.69s8.15-4.52,12.17-6.95c3.57-2.16,6.69-5,8.29-8.89h-2.9c.83,3.82,1.84,7.64,2.45,11.5a12.88,12.88,0,0,1-2.07,9.38c-3.85,5.84-10.81,8.53-17.11,10.83-1.8.66-1,3.56.8,2.89,7.1-2.59,14.58-5.64,18.9-12.21a15.44,15.44,0,0,0,2.59-10.13c-.47-4.39-1.73-8.75-2.66-13.06-.35-1.6-2.39-1.24-2.9,0-1.51,3.73-5.1,6.14-8.48,8a116.59,116.59,0,0,0-11.31,6.55,44.47,44.47,0,0,1-11.14,6.17,86.39,86.39,0,0,1-12.84,3c-1.89.34-1.09,3.23.8,2.89Z" transform="translate(-602.64 -225.72)"/><path class="cls-9" d="M872.2,428.3c-.33-2.94-.81-5.86-1.42-8.75a.82.82,0,0,0-1.33-.34c-1.48,1.52-2.4,3.41-3.8,5s-3.75,2.49-5.77,3.55a.6.6,0,0,0-.16.08l-.13.07c-1.52.83-3,1.73-4.47,2.65-.51.27-1,.55-1.49.85-1.55.94-3.08,1.92-4.63,2.88a46.51,46.51,0,0,1-9.44,5,.7.7,0,0,0-.29.17l-.42,0a.77.77,0,0,0-.69,1.14c.87,1.29,1.37,2.76,2.26,4a14.91,14.91,0,0,0,2.9,3,20.45,20.45,0,0,0,3.76,2.32,2.91,2.91,0,0,0,1.11.49l.63.26.2.14a2,2,0,0,0,.4.68c1.54,1.78,4,.43,5.4-.69.79-.61-.34-1.68-1.13-1.07a5,5,0,0,1-1.75,1,.88.88,0,0,0,0-.28c-.18-.67-.35-1.37-.49-2.09a3.43,3.43,0,0,0,.08-.74c0-.8-.14-1.59-.11-2.4a11.73,11.73,0,0,1,2.69-6.84l.3-.19a5.58,5.58,0,0,0,3.57-1.49l0,0a37.38,37.38,0,0,0,4.85-1.93,31.29,31.29,0,0,0,5.44-1.73,24.22,24.22,0,0,0,3.24-1.78C872.66,430.63,872.32,429.44,872.2,428.3Z" transform="translate(-602.64 -225.72)"/><path class="cls-10" d="M868.74,432.48,859,437.59c-2.29.75-5.11,1.37-6.24,3.5a15.58,15.58,0,0,0-1.61,8.6,2.7,2.7,0,0,0,4,2.19,46.8,46.8,0,0,0,9.89-6.82,28.82,28.82,0,0,0,7.38-9.11A2.62,2.62,0,0,0,868.74,432.48Z" transform="translate(-602.64 -225.72)"/><path d="M853.28,451.07c-1-4.4-1.08-9.84,3.78-11.87,2.39-1,4.88-1.79,7.32-2.68l7.66-2.78c1.8-.66,1-3.56-.8-2.89L862.65,434l-4.49,1.63a20.82,20.82,0,0,0-3.86,1.64c-5.08,3.12-5.09,9.47-3.92,14.63.43,1.88,3.32,1.09,2.9-.8Z" transform="translate(-602.64 -225.72)"/><path class="cls-11" d="M866,443.32a51,51,0,0,1-6.77,5,40.32,40.32,0,0,1-7.57,3c-1.37.43-.78,2.61.6,2.17a44.11,44.11,0,0,0,8.1-3.26,55,55,0,0,0,7.23-5.4,1.12,1.12,0,0,0-1.59-1.59Z" transform="translate(-602.64 -225.72)"/><path class="cls-12" d="M970.07,434c-.07-4.91,3.67-8.6,7.49-11.13a50.86,50.86,0,0,1,15.14-6.41l-.8-2.89a35.77,35.77,0,0,0-9.82,4.68,1.54,1.54,0,0,0-.69,1.69c.49,2,1.14,4,1.47,6,.18,1.12.4,2.66-.92,3.07-1.83.57-1.05,3.47.8,2.89,5.51-1.72,2.48-8.94,1.54-12.75l-.69,1.7a33.16,33.16,0,0,1,9.11-4.38,1.5,1.5,0,0,0-.8-2.89,51.61,51.61,0,0,0-16.64,7.25c-4.4,3.1-8.27,7.5-8.19,13.18a1.5,1.5,0,0,0,3,0Z" transform="translate(-602.64 -225.72)"/><path class="cls-13" d="M786.59,299.71s-10.07,25.38-19.08,25.38,0-34.52,0-34.52S700.76,338.29,749,283c0,0-60.93,20.81-65.16,0s46.09-33,82.11-25.38c0,0,21.72,10.15,38.15,0,15.1-9.33,40.94-42.69,126.92-25.53a66.72,66.72,0,0,1,39.79,24.32c23,29.63,60.44,89,35.67,135.73,0,0-40.27,8.63-48.74,22.33s-13.25-20.81-3.18-32a54.51,54.51,0,0,0,7.33-6.22c7.41-7.54,2.69-20.08-8-21.28-7.41-.82-19.64-4.79-39.56-16.66l-34.43-28.43s33.9,36,30.2,42.64-42.39-18.78-60.93-45.68c0,0,19.07,38.58,24.37,40.1s-30.2,16.75-51.39-56.35c0,0,3.18,48.23-6.89,46.2S794.53,338.29,786.59,299.71Z" transform="translate(-602.64 -225.72)"/><path class="cls-14" d="M956.05,418.43c2-4.17,5.65-6.66,9.38-9.2a37.57,37.57,0,0,1,6.19-3.55c2.25-1,4.61-1.7,6.91-2.59,4.57-1.75,8.87-4,13.6-5.36a135.09,135.09,0,0,1,14.38-3.05c1.4-.25,1.29-2.07.35-2.74-1.36-1-3-.76-4.58-.41-2,.47-4.1,1-6.16,1.49-3.77.91-7.53,1.83-11.27,2.85a104.18,104.18,0,0,0-21.7,8.23c-1.48.79-.47,3.31,1.15,2.75l19-6.61-.8-2.9q-12.66,4.62-24.84,10.41a1.52,1.52,0,0,0,.76,2.8,13.69,13.69,0,0,0,6-1.67l-1.52-2.59-4,2.53,1.51,2.59A108.44,108.44,0,0,1,1002,393.78l-1.15-2.74a35.28,35.28,0,0,1-6.28,2.16q-3.4,1.08-6.75,2.28-6.54,2.34-12.89,5.19c-7.78,3.48-15.65,7.5-20,15.18l2.35-.31.13.21c.22-1.92-2.78-1.9-3,0a2.21,2.21,0,0,0,.75,1.91,1.52,1.52,0,0,0,2.36-.3c4.25-7.47,12.25-11.15,19.81-14.48,4.14-1.83,8.37-3.49,12.65-5,2.09-.74,4.19-1.43,6.31-2.09a32.73,32.73,0,0,0,6.09-2.18c1.57-.85.44-3.05-1.15-2.74a110.43,110.43,0,0,0-42.39,17.93c-1.56,1.09-.14,3.63,1.51,2.59l4-2.53a1.5,1.5,0,0,0-1.52-2.59,10.4,10.4,0,0,1-4.5,1.26l.76,2.79q11.82-5.62,24.12-10.1c1.79-.66,1-3.54-.8-2.9l-19,6.61,1.16,2.74A98.85,98.85,0,0,1,984.77,399c3.44-1,6.91-1.82,10.38-2.67l5.55-1.34c1.24-.3,3.48-1.31,4.65-.47l.36-2.74c-7.86,1.37-15.54,2.93-22.86,6.2-3.72,1.66-7.54,3-11.3,4.49a47.33,47.33,0,0,0-9.81,5.69c-3.39,2.43-6.43,4.91-8.28,8.75-.84,1.73,1.75,3.25,2.59,1.51Z" transform="translate(-602.64 -225.72)"/><path class="cls-14" d="M952,415.31a4.34,4.34,0,0,0,2.45,3.48,3.76,3.76,0,0,0,4.05-1.3c.93-1,1.43-2.37,2.43-3.33a46.46,46.46,0,0,1,4.4-3.36c3-2.23,5.91-4.74,9.08-6.69a38.9,38.9,0,0,0,4.17-2.49,21.2,21.2,0,0,1,3.81-2.86c1.74-.83.22-3.42-1.51-2.59-2.43,1.16-4.11,3.35-6.53,4.56-2.8,1.41-5.25,3.54-7.75,5.41s-5.16,3.6-7.51,5.65a13,13,0,0,0-2.22,2.88c-.23.36-.68,1.14-1.15,1.25-.62.14-.73-.94-.82-1.41-.39-1.89-3.28-1.09-2.9.8Z" transform="translate(-602.64 -225.72)"/><path class="cls-14" d="M988,396.75c2.87-.73,5.76-1.41,8.67-2,1.39-.3,2.79-.57,4.19-.83l2.11-.38c.38-.07.77-.16,1.16-.2a2,2,0,0,1,.43,0c.31.09.32,0,0-.34.12,1.91,3.12,1.93,3,0s-1.84-2.82-3.64-2.6-3.76.63-5.61,1q-5.6,1.09-11.12,2.51c-1.87.48-1.07,3.37.8,2.89Z" transform="translate(-602.64 -225.72)"/><path class="cls-14" d="M1001.9,399.77l3.91-3.74,1-.92a1.84,1.84,0,0,0,.33-2.47,1.65,1.65,0,0,0-2.46-.14,1.69,1.69,0,0,0-.48,1.16,1.58,1.58,0,0,0,1.16,1.48,1.5,1.5,0,0,0,1.69-2.2,1.7,1.7,0,0,0-.89-.69h0l.66.38,0,0,.44,1.06v0l0,.39a1.36,1.36,0,0,1-.88.92l-.4.05h0l-.75-.21-.25-.19-.38-.66,0,.07-.06-.4v.07l.06-.4c0-.16.19-.26.23-.4,0,.06-.12.13-.16.17l-.3.28-.64.61-1.3,1.24-2.57,2.46a1.51,1.51,0,0,0,0,2.12,1.53,1.53,0,0,0,2.12,0Z" transform="translate(-602.64 -225.72)"/><path class="cls-14" d="M990.84,397.54a7.7,7.7,0,0,0,2.88.65s.62.07.35,0l.45.07c.4.07.8.15,1.19.24s.78.21,1.17.34l.42.15.34.13a10.63,10.63,0,0,1,2.07,1.18,1.5,1.5,0,0,0,2-.54,1.54,1.54,0,0,0-.53-2.05,13.43,13.43,0,0,0-4.42-2,17.59,17.59,0,0,0-2.49-.46c-.41-.06-.81-.09-1.22-.13a2,2,0,0,1-.74-.18,1.5,1.5,0,1,0-1.52,2.59Z" transform="translate(-602.64 -225.72)"/><path class="cls-14" d="M1001,399l3.22-2a1.54,1.54,0,0,0,.69-1.69,1.52,1.52,0,0,0-1.45-1.11s-.47,0-.23,0l.9,2.21.16-.24c-.09.12-.08.11,0,0a3.85,3.85,0,0,1,.35-.35l.16-.15c-.12.09-.1.08,0,0a4.94,4.94,0,0,1,.49-.3l-1.82-2.36c.22-.18-.09,0-.14.08l-.25.12c.12-.06.13-.06,0,0-.26.07-.53.18-.79.27a10.19,10.19,0,0,0-1.92.9,10.48,10.48,0,0,0-1.59,1.22l-.64.57c.22-.18-.15.1-.2.13a2.64,2.64,0,0,1-.44.23l1.82,2.36c.21-.22.43-.43.65-.63l.34-.29.17-.14a13.82,13.82,0,0,1,1.52-1,1.51,1.51,0,0,0-.35-2.74,3.26,3.26,0,0,0-2.1.38c-.48.24-1,.48-1.45.7l-.28.13c.24-.1-.19.06-.2.07l-.29.07c.29-.07,0,0-.06,0s-.26-.06-.06,0c0,0-.38-.1-.2,0s-.14-.08-.17-.1c-.27-.13.12.13-.11-.09l.39,1.46a.76.76,0,0,1-.16.26q-.21.14-.06.06c.09-.06.07-.05-.08,0,.14,0,.16,0,.07,0h.87a8.11,8.11,0,0,0,2.35-.35,1.5,1.5,0,1,0-.8-2.89c-.21.06-.42.12-.63.16,0,0-.41.07-.29.06h-.21c-.45,0-.89,0-1.34,0a2.81,2.81,0,0,0-2.62,1.89,1.51,1.51,0,0,0,.39,1.46,3.92,3.92,0,0,0,3.66,1,9.55,9.55,0,0,0,1.78-.74l.73-.35c.13-.07.27-.15.41-.21l-.09,0c.26-.06.17-.08-.25,0l-.36-2.75a15.3,15.3,0,0,0-3.29,2.54,1.51,1.51,0,0,0-.12,2,1.52,1.52,0,0,0,1.93.38,6.48,6.48,0,0,0,1.68-1.21,6.56,6.56,0,0,1,1.32-1q.39-.22.81-.42c-.23.1.21-.08.26-.09l.47-.16a6.09,6.09,0,0,0,2-1.07,1.48,1.48,0,0,0,.12-2,1.5,1.5,0,0,0-1.93-.38,6.64,6.64,0,0,0-2.32,2.15,1.51,1.51,0,0,0,.89,2.21,4,4,0,0,0,1,.06l-.76-2.79-3.22,2A1.5,1.5,0,0,0,1001,399Z" transform="translate(-602.64 -225.72)"/><path class="cls-15" d="M905.79,298.19s6.88,43.15,22.25,46.19c9.89,2,29.77.24,37.74,11,5.1,6.87,2.39,17.1-1.45,31.94-4.52,17.43-11.05,26.56-8.48,28.42,1.72,1.25,5.9-3.57,21.19-12.18,8.37-4.71,11.35-5.66,14.84-5.58,4.45.09,7,1.81,10.59.5s5.54-4.74,6.63-7.36c.79-9.75,4.5-19.81,3.44-32.23-1.71-20-7-39.69-11.66-52.79-11-18.1-36.84-51.27-52.71-47.47-3.44.83-10.32,4.36-9.84,6.28.43,1.73,6.79,1.7,10.11,1.59l20.92,11.93A264.14,264.14,0,0,1,932,265.45c-4.48-1.95-9.5-2.92-10.06-2-.7,1.1,8.25,3.49,16.95,15.23a104.29,104.29,0,0,1,10.86,19.54c-28.17-24.19-37-27-39.73-24.87-3.75,2.87,1.66,16.48,6.62,24.61,0,0,3.08,5.07,19.34,22.09Z" transform="translate(-602.64 -225.72)"/><path class="cls-16" d="M880.16,310s12.9,40.28,23.73,38.11S880.16,310,880.16,310Z" transform="translate(-602.64 -225.72)"/><path class="cls-16" d="M849.89,308.59c.18,6.7,1.36,35.27,13.78,39.09,2,.6,6.24,1.22,7.42-.51,1.57-2.3-3.25-7.5-6.89-12.18A94.68,94.68,0,0,1,849.89,308.59Z" transform="translate(-602.64 -225.72)"/><path class="cls-16" d="M821.1,284.57s-18.94,45.6-7.59,50.9S821.1,284.57,821.1,284.57Z" transform="translate(-602.64 -225.72)"/><path class="cls-16" d="M753.19,280.53s-58.82-7.35-61.34,6S753.19,280.53,753.19,280.53Z" transform="translate(-602.64 -225.72)"/><path class="cls-17" d="M916.06,473a92.4,92.4,0,0,1-14,10.16,95.58,95.58,0,0,1-19.15,8.61c-10.56,3.54-17.63,8.27-58.66,33.83-9,5.64-24.15,15-43.69,27.1l3,21.94a391.36,391.36,0,0,0,53.87-25,382.51,382.51,0,0,0,67.63-48.17" transform="translate(-602.64 -225.72)"/><path d="M915,471.89a93.89,93.89,0,0,1-32.3,18.32,77.14,77.14,0,0,0-12,5.22c-6.59,3.52-12.93,7.5-19.28,11.43-10.82,6.68-21.58,13.44-32.37,20.15q-16.92,10.53-33.87,21l-5.4,3.33a1.58,1.58,0,0,0-.69,1.7l2.62,19.18.37,2.75a1.51,1.51,0,0,0,1.85,1,392.28,392.28,0,0,0,52.7-24.25A383,383,0,0,0,885.1,520q10.81-8.34,21-17.42c1.45-1.29-.68-3.41-2.12-2.13a378.11,378.11,0,0,1-40,31.11,385.89,385.89,0,0,1-52.53,29.75q-13.92,6.51-28.31,11.88l1.85,1.05L782.38,555l-.38-2.76-.69,1.7q18.12-11.19,36.19-22.43,16.15-10,32.29-20.12c6.88-4.26,13.74-8.59,20.82-12.5,2.12-1.17,4.27-2.29,6.47-3.3l1.42-.63,1.14-.47c.92-.37,1.86-.71,2.8-1A131.18,131.18,0,0,0,895,488.57a94.36,94.36,0,0,0,19.23-12.08c1-.8,2-1.63,2.94-2.48,1.45-1.28-.68-3.39-2.12-2.12Z" transform="translate(-602.64 -225.72)"/><path d="M854.18,486.67c-.83-.52-1.64-1.06-2.43-1.64l-.31-.23-.12-.09-.6-.48c-.38-.3-.75-.62-1.11-.94a33.89,33.89,0,0,1-4-4.26,1.5,1.5,0,0,0-2.12,0,1.55,1.55,0,0,0,0,2.12,35.86,35.86,0,0,0,9.21,8.11,1.5,1.5,0,1,0,1.52-2.59Z" transform="translate(-602.64 -225.72)"/><path d="M902.41,504.89c3.43-.41,7-.92,9.67-3.27a1.52,1.52,0,0,0,0-2.13,1.55,1.55,0,0,0-2.13,0l-.2.18c-.09.08-.13.1,0,0-.14.1-.28.21-.43.3a8.34,8.34,0,0,1-.92.52l-.48.22c.14-.06.11,0,0,0l-.25.1c-.36.13-.73.24-1.1.34-.71.19-1.43.34-2.15.46l-.55.08-.27,0-.14,0-.14,0-.28,0-.61.07a1.54,1.54,0,0,0-1.5,1.5c0,.73.67,1.6,1.5,1.5Z" transform="translate(-602.64 -225.72)"/><path class="cls-18" d="M781.5,549.11l1.53,8.2,119.78-71.09L893.9,488c-3.62,1.3-9.41,3.51-16.3,6.73a190.83,190.83,0,0,0-21.06,11.52C845.68,513,822.93,526.1,781.5,549.11Z" transform="translate(-602.64 -225.72)"/><path class="cls-19" d="M781.5,554.92l.86,5.86L907.71,482.7c.49-1.47,1-2.94,1.46-4.41-6.18,4-15.07,9.65-25.87,16.35-9.82,6.09-17.26,10.57-21.65,13.22C832.81,525.22,787.19,551.63,781.5,554.92Z" transform="translate(-602.64 -225.72)"/><path class="cls-18" d="M764.17,496.76l-.1,5.4L842,468.06l-5.37.26c-2.25.49-5.87,1.35-10.25,2.76a112.46,112.46,0,0,0-13.59,5.37C805.68,479.76,790.93,486,764.17,496.76Z" transform="translate(-602.64 -225.72)"/><path class="cls-19" d="M764.29,500l-.18,5.47c61.21-27.91,74.22-34.69,73.9-35.37-.25-.53-8.81,2.69-17.4,5.92C796.94,484.91,777.89,493.48,764.29,500Z" transform="translate(-602.64 -225.72)"/><path class="cls-12" d="M810.78,672.57a1.5,1.5,0,0,0,0-3,1.5,1.5,0,0,0,0,3Z" transform="translate(-602.64 -225.72)"/><polygon class="cls-20" points="165.73 611.97 162.59 629.1 172.02 630.09 173.98 612.84 165.73 611.97"/><path class="cls-21" d="M756.71,853.37l-10.11,1.28c-1.59.05-3,.74-3.21,1.75-.29,1.22,1,3.31,3.55,4.16l26.84,2.78a1.77,1.77,0,0,0,1.41-.74c1.33-1.59,3.73-5.26.24-7.78a1.24,1.24,0,0,0-.67-.24Z" transform="translate(-602.64 -225.72)"/><polygon class="cls-20" points="149.5 617.91 148.18 635.16 158.78 635.16 158.78 617.91 149.5 617.91"/><path class="cls-22" d="M845.13,730.42c25.54-7.43,31.9-8.14,32.31-7.1,1.16,2.89-41.82,23.4-56.15,25.89-4.95.86-9.62,2.83-14.31,4.56-6.77,2.52-6.55,3.75-7.41,10.66-1.53,12.29-6.21,25.08-10.07,39.6-3.68,13.84-6.66,29.2-11.13,40.1-5,.11-16.25-2.2-21.3-2.09L777,749.92s-6-24.51,57.53-19.5Z" transform="translate(-602.64 -225.72)"/><rect class="cls-23" x="190.06" y="495" width="525" height="125" rx="12"/><text class="cls-24" transform="translate(428.37 574.44) scale(0.94 1)">SELL</text><path class="cls-22" d="M903.67,665.2l-62.9,4.13-27.36,1.8a35.57,35.57,0,0,0-5.42.78A106.74,106.74,0,0,0,791.57,677c-9.42,3.81-30.2,12-43.13,32.32a76.86,76.86,0,0,0-11.05,36.85c-1.44,30.7,5.11,70.81,9,93,.66,3.75,1.2,6.74,1.48,8.25l17,1.52,13.28-96.5a20.19,20.19,0,0,1,17.94-17l31.78-3.67a177.79,177.79,0,0,1,21-1.12c9.16,0,25.08-2,38.37-14.18,16.66-15.31,16.67-35.21,16.46-39.94,0-.58,0-1.16,0-1.74Z" transform="translate(-602.64 -225.72)"/><path class="cls-25" d="M810.94,667l-1.56,5.08,94.84,1c-.19-2.54-.39-5.07-.58-7.61Z" transform="translate(-602.64 -225.72)"/><ellipse class="cls-26" cx="809.95" cy="669.14" rx="2.73" ry="1.91" transform="translate(-688.41 992.49) rotate(-71.07)"/><path class="cls-27" d="M809.73,670.89a1.5,1.5,0,0,0,0-3,1.5,1.5,0,0,0,0,3Z" transform="translate(-602.64 -225.72)"/><path class="cls-27" d="M816,671.24a1.5,1.5,0,0,0,0-3,1.5,1.5,0,0,0,0,3Z" transform="translate(-602.64 -225.72)"/><path class="cls-27" d="M823.62,671.32a1.5,1.5,0,0,0,0-3,1.5,1.5,0,0,0,0,3Z" transform="translate(-602.64 -225.72)"/><path class="cls-27" d="M830.74,671.24a1.5,1.5,0,0,0,0-3,1.5,1.5,0,0,0,0,3Z" transform="translate(-602.64 -225.72)"/><path class="cls-27" d="M837.6,671.32a1.5,1.5,0,0,0,0-3,1.5,1.5,0,0,0,0,3Z" transform="translate(-602.64 -225.72)"/><path class="cls-27" d="M845.08,671.58a1.5,1.5,0,0,0,0-3,1.5,1.5,0,0,0,0,3Z" transform="translate(-602.64 -225.72)"/><path class="cls-27" d="M852.21,671.24a1.5,1.5,0,0,0,0-3,1.5,1.5,0,0,0,0,3Z" transform="translate(-602.64 -225.72)"/><path class="cls-27" d="M860.32,671.5a1.5,1.5,0,0,0,0-3,1.5,1.5,0,0,0,0,3Z" transform="translate(-602.64 -225.72)"/><path class="cls-27" d="M868.17,671.41a1.5,1.5,0,0,0,0-3,1.5,1.5,0,0,0,0,3Z" transform="translate(-602.64 -225.72)"/><path class="cls-27" d="M877,671.24a1.5,1.5,0,0,0,0-3,1.5,1.5,0,0,0,0,3Z" transform="translate(-602.64 -225.72)"/><path class="cls-27" d="M884.22,671.06a1.5,1.5,0,0,0,0-3,1.5,1.5,0,0,0,0,3Z" transform="translate(-602.64 -225.72)"/><path class="cls-27" d="M892.51,671.41a1.5,1.5,0,0,0,0-3,1.5,1.5,0,0,0,0,3Z" transform="translate(-602.64 -225.72)"/><path class="cls-27" d="M900.09,671.32a1.5,1.5,0,0,0,0-3,1.5,1.5,0,0,0,0,3Z" transform="translate(-602.64 -225.72)"/><path class="cls-28" d="M739.58,853.19l-14.33,1.43c-2.25,0-4.2.86-4.52,2-.39,1.45,1.47,3.94,5.14,5l38.19,3.56a2.58,2.58,0,0,0,2-.87c1.85-1.88,5.19-6.21.16-9.25a2.1,2.1,0,0,0-1-.29Z" transform="translate(-602.64 -225.72)"/><path class="cls-29" d="M730.26,854.36a6.93,6.93,0,0,0,1.27,2.85.38.38,0,1,0,.65-.38,6.42,6.42,0,0,1-1.2-2.66.37.37,0,1,0-.72.19Z" transform="translate(-602.64 -225.72)"/><path class="cls-29" d="M728.22,854.76a9.2,9.2,0,0,0,.74,1.84.38.38,0,0,0,.51.14.39.39,0,0,0,.14-.52c-.08-.14-.15-.28-.22-.43l-.09-.2s0-.09,0,0a.61.61,0,0,1,0-.12,6.51,6.51,0,0,1-.3-.88.39.39,0,0,0-.46-.26.38.38,0,0,0-.26.46Z" transform="translate(-602.64 -225.72)"/><path class="cls-30" d="M724.6,572.81" transform="translate(-602.64 -225.72)"/><path class="cls-1" d="M727.78,556.06" transform="translate(-602.64 -225.72)"/><ellipse class="cls-31" cx="132.82" cy="324.5" rx="3.97" ry="3.81"/></svg>